<svg width="188" height="32" viewBox="0 0 188 32" fill="none" xmlns="http://www.w3.org/2000/svg">
<path fill-rule="evenodd" clip-rule="evenodd" d="M79.1488 31.4483C80.9733 31.7964 82.8255 31.9747 84.6821 31.9809C87.0403 32.0895 89.3969 31.7337 91.6208 30.9334C93.4358 30.1942 95.0155 28.966 96.188 27.3824C97.2874 25.8328 97.855 23.9621 97.804 22.0559C97.7923 17.558 94.97 14.7172 89.3372 13.5335L84.243 12.4327C83.245 12.2712 82.2893 11.909 81.4324 11.3674C81.1847 11.1876 80.9835 10.9501 80.8459 10.675C80.7083 10.4 80.6383 10.0954 80.6419 9.78721C80.6312 9.33294 80.7412 8.88408 80.9606 8.48745C81.18 8.09083 81.5006 7.76098 81.8891 7.53232C83.0387 6.88019 84.3503 6.57805 85.6658 6.66233C86.6974 6.66935 87.7263 6.77037 88.7399 6.96416C89.7558 7.09934 90.7523 7.35561 91.7086 7.72763C92.1375 7.95795 92.6102 8.09294 93.0949 8.12356C93.5796 8.15419 94.0652 8.07973 94.5192 7.90518C94.8787 7.7464 95.2036 7.51714 95.475 7.23067C95.7463 6.9442 95.9588 6.6062 96.1001 6.23621C96.4042 5.51876 96.4659 4.72004 96.2758 3.96357C96.1353 3.53362 95.9061 3.13875 95.6032 2.80511C95.3004 2.47147 94.9309 2.20668 94.5192 2.02828C93.2458 1.3059 91.8627 0.80193 90.4263 0.536857C88.9166 0.18664 87.3729 0.00798203 85.8239 0.00420743C83.4779 -0.048055 81.1461 0.387046 78.9731 1.28257C77.1347 2.00589 75.5341 3.23621 74.3533 4.83356C73.263 6.38778 72.6964 8.25528 72.7372 10.1601C72.7255 14.8119 75.5068 17.7296 81.0811 18.9133L86.2104 20.0141C87.2244 20.1665 88.198 20.5227 89.0737 21.0616C89.332 21.2458 89.5421 21.4908 89.6859 21.7754C89.8298 22.0599 89.903 22.3756 89.8993 22.6951C89.8866 23.0933 89.7713 23.4812 89.5649 23.8206C89.3585 24.16 89.0681 24.4391 88.7224 24.6304C87.4634 25.232 86.0702 25.4891 84.6821 25.3761C83.3556 25.3696 82.0324 25.2388 80.7298 24.9855C79.4235 24.7184 78.155 24.289 76.953 23.7071C76.2466 23.3493 75.4379 23.255 74.6694 23.4408C74.0177 23.6111 73.442 23.999 73.0358 24.5416C72.6396 25.0575 72.3851 25.67 72.298 26.3171C72.1996 27.0514 72.3444 27.7979 72.7098 28.4403C73.0753 29.0826 73.6408 29.5847 74.3181 29.8681C75.8526 30.6073 77.4768 31.1386 79.1488 31.4483ZM55.452 3.41254L66.3781 26.9734C66.7241 27.4932 66.9233 28.0985 66.9543 28.7242C66.9852 29.3499 66.8468 29.9723 66.5538 30.5244C66.2299 30.9829 65.7948 31.3494 65.2903 31.5888C64.7858 31.8282 64.2288 31.9325 63.6729 31.8915C62.7008 31.9554 61.7373 31.6727 60.9502 31.0926C60.1743 30.3985 59.5723 29.5284 59.1936 28.5536L57.7883 25.2157H43.9462L42.5409 28.5536C42.1637 29.4945 41.6156 30.3556 40.9248 31.0926C40.2127 31.6869 39.2977 31.9739 38.3777 31.8915C37.7794 31.9669 37.1721 31.8678 36.6277 31.6059C36.0832 31.3439 35.6242 30.9301 35.3048 30.4131C34.9854 29.8962 34.8188 29.2977 34.8249 28.6882C34.8309 28.0788 35.0092 27.4838 35.3388 26.9734L46.3703 3.41254C46.7701 2.41183 47.4396 1.54451 48.3026 0.909083C49.0886 0.368328 50.022 0.0890171 50.9726 0.110109C51.912 0.0916939 52.8334 0.371096 53.6076 0.909083C54.4331 1.56151 55.0701 2.42612 55.452 3.41254ZM50.797 8.95209L46.5811 19.0192H55.1007L50.8848 8.95209H50.797ZM133.586 7.58536C132.307 5.23159 130.395 3.29236 128.07 1.99253C125.542 0.635948 122.711 -0.0425969 119.849 0.0217306C116.97 -0.0438197 114.123 0.63453 111.576 1.99253C109.244 3.28968 107.326 5.22916 106.042 7.58536C104.706 10.1744 104.041 13.0639 104.11 15.9835C104.049 18.9085 104.733 21.8002 106.095 24.3816C107.369 26.7361 109.267 28.6852 111.576 30.0099C114.117 31.365 116.959 32.0432 119.832 31.9807C122.694 32.045 125.524 31.3665 128.053 30.0099C130.376 28.692 132.287 26.742 133.568 24.3816C134.931 21.8002 135.614 18.9085 135.553 15.9835C135.628 13.0591 134.95 10.1652 133.586 7.58536ZM125.207 22.8014C124.528 23.5622 123.699 24.1704 122.773 24.5868C121.847 25.0031 120.845 25.2182 119.832 25.2182C118.818 25.2182 117.816 25.0031 116.89 24.5868C115.964 24.1704 115.135 23.5622 114.456 22.8014C113.061 20.8185 112.379 18.4125 112.524 15.9835C112.371 13.5646 113.054 11.1672 114.456 9.20106C115.141 8.44138 115.975 7.83451 116.905 7.41927C117.836 7.00402 118.841 6.78954 119.858 6.78954C120.875 6.78954 121.88 7.00402 122.811 7.41927C123.741 7.83451 124.575 8.44138 125.26 9.20106C126.647 11.1743 127.329 13.5664 127.192 15.9835C127.322 18.4188 126.621 20.8254 125.207 22.8014ZM145.742 31.7523C146.234 31.9178 146.757 31.9654 147.27 31.8912C147.78 31.9601 148.299 31.9083 148.785 31.7399C149.272 31.5716 149.713 31.2913 150.074 30.9212C150.435 30.5511 150.706 30.1012 150.866 29.6071C151.026 29.113 151.07 28.5881 150.994 28.0739V13.7101L163.677 29.5831C164.154 30.2756 164.748 30.8769 165.434 31.3586C166.162 31.7492 166.981 31.9333 167.805 31.8912C168.245 31.9137 168.685 31.8397 169.095 31.6742C169.504 31.5087 169.873 31.2557 170.176 30.9324C170.784 30.1775 171.096 29.2236 171.055 28.2514V3.90935C171.09 3.40543 171.022 2.89963 170.856 2.42321C170.69 1.9468 170.428 1.50992 170.089 1.13957C169.726 0.777561 169.29 0.49954 168.811 0.324786C168.332 0.150032 167.821 0.0827273 167.313 0.127538C166.806 0.0561906 166.289 0.104997 165.804 0.270103C165.319 0.435209 164.878 0.712091 164.517 1.07888C164.156 1.44567 163.884 1.89232 163.723 2.38355C163.562 2.87478 163.516 3.39713 163.589 3.90935V18.2909L150.906 2.41793C150.411 1.74185 149.819 1.14355 149.15 0.642433C148.506 0.246933 147.758 0.0609791 147.007 0.109783C146.533 0.090343 146.06 0.173781 145.621 0.354479C145.181 0.535177 144.786 0.80894 144.46 1.15733C143.765 1.97191 143.417 3.03171 143.494 4.10465V28.0739C143.42 28.5925 143.467 29.1212 143.631 29.6182C143.795 30.1152 144.071 30.5668 144.437 30.9372C144.804 31.3076 145.251 31.5867 145.742 31.7523ZM180.962 30.844C181.367 31.2091 181.839 31.4897 182.352 31.6695C182.865 31.8493 183.408 31.9247 183.949 31.8915C184.491 31.9308 185.036 31.8582 185.549 31.6781C186.063 31.498 186.535 31.2142 186.936 30.844C187.308 30.4266 187.592 29.9381 187.773 29.4074C187.955 28.8767 188.028 28.3147 187.99 27.7546V4.247C188.028 3.68695 187.955 3.12489 187.773 2.59419C187.592 2.06349 187.308 1.57497 186.936 1.15764C186.086 0.477887 185.033 0.108069 183.949 0.108069C182.865 0.108069 181.813 0.477887 180.962 1.15764C180.591 1.57497 180.306 2.06349 180.125 2.59419C179.944 3.12489 179.87 3.68695 179.908 4.247V27.7546C179.87 28.3147 179.944 28.8767 180.125 29.4074C180.306 29.9381 180.591 30.4266 180.962 30.844ZM6.9005 18.4419C7.65854 17.7155 8.10582 16.7185 8.14695 15.6635V7.08787H12.3804C14.8559 6.88573 17.3106 7.67662 19.2136 9.28949C20.0287 10.1964 20.6493 11.264 21.0363 12.4251C21.4233 13.5863 21.5682 14.8158 21.4621 16.0364C21.5595 17.2618 21.4105 18.4944 21.0241 19.66C20.6377 20.8256 20.0218 21.9002 19.2136 22.8188C18.2747 23.6233 17.1875 24.2321 16.0147 24.6099C14.8419 24.9878 13.6068 25.1273 12.3804 25.0204H3.4041C2.54222 25.0204 1.71563 25.3665 1.10619 25.9825C0.496748 26.5985 0.154366 27.4339 0.154366 28.3051C0.154366 29.1762 0.496748 30.0117 1.10619 30.6277C1.71563 31.2437 2.54222 31.5898 3.4041 31.5898H12.9776C18.3704 31.5898 22.5336 30.2404 25.5023 27.5416C27.0125 26.0542 28.1868 24.2544 28.9448 22.2655C29.7027 20.2767 30.0265 18.1457 29.8938 16.0186C30.0168 13.8942 29.6815 11.7682 28.9111 9.78772C28.1407 7.80726 26.9536 6.01973 25.432 4.54891C22.4633 1.85015 18.3002 0.500775 12.9074 0.500775H4.26484C3.69671 0.413265 3.11623 0.460485 2.56926 0.638703C2.02229 0.816921 1.52381 1.12125 1.11321 1.52766C0.702607 1.93407 0.391127 2.43142 0.203378 2.98041C0.0156286 3.5294 -0.0432467 4.11501 0.0314033 4.69095V15.6635C0.0725346 16.7185 0.519814 17.7155 1.27786 18.4419C2.0359 19.1683 3.04472 19.5666 4.08918 19.5519C5.13364 19.5666 6.14245 19.1683 6.9005 18.4419Z" fill="#FE6F5B"/>
</svg>
