<svg width="104" height="104" viewBox="0 0 104 104" fill="none" xmlns="http://www.w3.org/2000/svg">
<path d="M0 20C0 8.95431 8.95431 0 20 0H84C95.0457 0 104 8.95431 104 20V84C104 95.0457 95.0457 104 84 104H20C8.95431 104 0 95.0457 0 84V20Z" fill="#FE6F5B"/>
<g clip-path="url(#clip0_302_19220)">
<path d="M79.3684 44.0101C79.3684 41.518 77.8936 39.4426 75.9124 38.8633C73.8446 27.5252 63.9357 18.9224 52 18.9224C40.0643 18.9224 30.1555 27.5252 28.0876 38.8633C26.1064 39.4426 24.6316 41.518 24.6316 44.0101C24.6316 46.6496 26.2843 48.8269 28.448 49.2435C31.1225 59.7743 40.6376 67.5773 52 67.5773C63.3625 67.5773 72.8776 59.7743 75.5521 49.2435C77.7142 48.8269 79.3684 46.6496 79.3684 44.0101Z" fill="#F7DECE"/>
<path d="M51.9998 53.8928C47.4384 53.8928 45.918 52.3723 45.918 55.4133C45.918 58.4542 48.9589 61.4951 51.9998 61.4951C55.0408 61.4951 58.0817 58.4542 58.0817 55.4133C58.0817 52.3723 56.5612 53.8928 51.9998 53.8928Z" fill="#1F1F1F"/>
<path d="M58.8419 47.8111C60.9412 47.8111 62.643 46.1092 62.643 44.0099C62.643 41.9106 60.9412 40.2087 58.8419 40.2087C56.7426 40.2087 55.0407 41.9106 55.0407 44.0099C55.0407 46.1092 56.7426 47.8111 58.8419 47.8111Z" fill="#1F1F1F"/>
<path d="M45.1578 47.8111C47.2571 47.8111 48.959 46.1092 48.959 44.0099C48.959 41.9106 47.2571 40.2087 45.1578 40.2087C43.0585 40.2087 41.3566 41.9106 41.3566 44.0099C41.3566 46.1092 43.0585 47.8111 45.1578 47.8111Z" fill="#1F1F1F"/>
<path d="M50.4794 55.4133H53.5203V56.9338C53.5203 56.9338 53.5203 58.4543 51.9998 58.4543C50.4794 58.4543 50.4794 56.9338 50.4794 56.9338V55.4133Z" fill="white"/>
<path fill-rule="evenodd" clip-rule="evenodd" d="M49.9709 23.4897L49.9712 23.4898L49.9877 23.4613L50.3838 22.7751L51.5239 20.8005L53.2102 21.774C54.4281 22.4772 55.1733 23.2823 55.4459 24.1894C55.7185 25.0964 55.5204 26.1291 54.8517 27.2873C54.183 28.4456 53.3845 29.1391 52.4561 29.3678C51.546 29.592 50.4761 29.3491 49.2466 28.6392L48.5456 28.2345L48.5373 28.2297L45.6687 26.5735C44.9284 26.1461 44.0034 26.3622 43.6027 27.0563C43.202 27.7503 43.4773 28.6594 44.2176 29.0868L46.8411 30.6015L46.8411 30.6015L48.0063 31.2742C50.1493 32.5115 52.1108 32.9543 53.8908 32.6026C55.6774 32.2396 57.116 31.1136 58.2067 29.2244C59.2975 27.3352 59.5501 25.5319 58.9647 23.8144C58.3792 22.097 57.015 20.6197 54.872 19.3824L51.4292 17.3947C50.305 16.7457 49.4345 16.9553 48.8177 18.0236L47.1518 20.9091L46.7556 21.5953L46.7392 21.6238L46.7394 21.624C46.2802 22.4569 46.6146 23.5339 47.497 24.0433C48.3793 24.5527 49.4792 24.3038 49.9709 23.4897Z" fill="#927674"/>
</g>
<g clip-path="url(#clip1_302_19220)">
<path fill-rule="evenodd" clip-rule="evenodd" d="M48.7403 87.6815C48.0915 87.6794 47.4442 87.6177 46.8066 87.4974C46.2223 87.3903 45.6547 87.2066 45.1185 86.951C44.8818 86.853 44.6842 86.6795 44.5565 86.4574C44.4288 86.2353 44.3782 85.9772 44.4125 85.7233C44.443 85.4995 44.5319 85.2878 44.6704 85.1094C44.8123 84.9218 45.0135 84.7877 45.2413 84.7288C45.5098 84.6646 45.7924 84.6972 46.0393 84.8209C46.4593 85.0221 46.9026 85.1705 47.3591 85.2629C47.8144 85.3505 48.2767 85.3957 48.7403 85.3979C49.2254 85.437 49.7123 85.3481 50.1522 85.1401C50.2731 85.074 50.3746 84.9775 50.4467 84.8601C50.5188 84.7428 50.5591 84.6087 50.5635 84.471C50.5648 84.3605 50.5392 84.2514 50.489 84.153C50.4387 84.0546 50.3653 83.9699 50.275 83.9062C49.969 83.7199 49.6288 83.5968 49.2744 83.5441L47.4819 83.1635C45.5339 82.7542 44.5619 81.7454 44.566 80.1371C44.5518 79.4785 44.7498 78.8328 45.1308 78.2955C45.5434 77.7432 46.1028 77.3178 46.7453 77.0677C47.5046 76.7581 48.3195 76.6077 49.1393 76.6257C49.6806 76.627 50.2201 76.6888 50.7477 76.8099C51.2497 76.9015 51.733 77.0758 52.178 77.3255C52.3219 77.3872 52.451 77.4788 52.5569 77.5941C52.6627 77.7095 52.7428 77.846 52.7919 77.9947C52.8583 78.2562 52.8368 78.5324 52.7305 78.7804C52.6811 78.9083 52.6069 79.0252 52.512 79.1242C52.4172 79.2233 52.3037 79.3026 52.178 79.3575C52.0194 79.4178 51.8497 79.4435 51.6803 79.433C51.5109 79.4224 51.3457 79.3757 51.1958 79.2961C50.8616 79.1674 50.5134 79.0788 50.1584 79.0321C49.8041 78.9651 49.4446 78.9302 49.0841 78.9277C48.6244 78.8986 48.166 79.0031 47.7643 79.2285C47.6285 79.3076 47.5165 79.4216 47.4398 79.5588C47.3631 79.6959 47.3247 79.8511 47.3284 80.0082C47.3272 80.1147 47.3516 80.22 47.3997 80.3151C47.4478 80.4102 47.5181 80.4923 47.6047 80.5545C47.9041 80.7417 48.2381 80.867 48.5869 80.9228L50.3671 81.3034C52.3356 81.7127 53.3219 82.6949 53.3259 84.25C53.3437 84.9091 53.1454 85.5558 52.7612 86.0916C52.3515 86.6391 51.7994 87.0638 51.1651 87.3194C50.388 87.5961 49.5644 87.7191 48.7403 87.6815Z" fill="white"/>
<path fill-rule="evenodd" clip-rule="evenodd" d="M42.3438 85.9501L38.5255 77.8041C38.3921 77.463 38.1694 77.1641 37.8809 76.9385C37.6104 76.7525 37.2884 76.6559 36.9601 76.6622C36.6279 76.655 36.3017 76.7515 36.027 76.9385C35.7254 77.1582 35.4915 77.4581 35.3518 77.8041L31.4967 85.9501C31.3815 86.1266 31.3192 86.3323 31.3171 86.543C31.315 86.7537 31.3732 86.9607 31.4848 87.1394C31.5964 87.3181 31.7568 87.4612 31.9471 87.5518C32.1374 87.6423 32.3496 87.6766 32.5587 87.6505C32.8801 87.679 33.1999 87.5798 33.4488 87.3743C33.6902 87.1195 33.8817 86.8218 34.0135 86.4965L34.5046 85.3424H39.3419L39.833 86.4965C39.9654 86.8335 40.1758 87.1343 40.4469 87.3743C40.722 87.5749 41.0587 87.6726 41.3984 87.6505C41.5927 87.6647 41.7873 87.6287 41.9636 87.5459C42.1399 87.4631 42.292 87.3364 42.4052 87.1779C42.5075 86.987 42.5559 86.7718 42.5451 86.5555C42.5343 86.3391 42.4647 86.1298 42.3438 85.9501ZM35.4254 83.2L36.8987 79.7193H36.9294L38.4027 83.2H35.4254Z" fill="white"/>
<path fill-rule="evenodd" clip-rule="evenodd" d="M65.8304 79.2467C65.3836 78.4329 64.7153 77.7624 63.9029 77.313C63.0192 76.844 62.0301 76.6094 61.03 76.6316C60.0239 76.609 59.0287 76.8435 58.1386 77.313C57.324 77.7615 56.6534 78.4321 56.2049 79.2467C55.7378 80.1419 55.5055 81.1409 55.5297 82.1503C55.5084 83.1616 55.7473 84.1615 56.2233 85.0539C56.6685 85.868 57.3317 86.5419 58.1386 86.9999C59.0269 87.4684 60.0198 87.7029 61.0238 87.6813C62.024 87.7036 63.0131 87.4689 63.8967 86.9999C64.7086 86.5442 65.3764 85.8701 65.8243 85.0539C66.3004 84.1615 66.5392 83.1616 66.518 82.1503C66.5442 81.1392 66.3073 80.1387 65.8304 79.2467ZM62.9023 84.5076C62.6651 84.7706 62.3754 84.9809 62.0518 85.1249C61.7282 85.2688 61.378 85.3432 61.0238 85.3432C60.6697 85.3432 60.3194 85.2688 59.9959 85.1249C59.6723 84.9809 59.3825 84.7706 59.1454 84.5076C58.6577 83.822 58.4194 82.9901 58.4701 82.1503C58.4167 81.314 58.6553 80.4851 59.1454 79.8053C59.3847 79.5427 59.6762 79.3329 60.0012 79.1893C60.3263 79.0457 60.6777 78.9716 61.033 78.9716C61.3884 78.9716 61.7398 79.0457 62.0648 79.1893C62.3899 79.3329 62.6814 79.5427 62.9207 79.8053C63.4057 80.4876 63.6439 81.3146 63.5959 82.1503C63.6414 82.9923 63.3965 83.8244 62.9023 84.5076Z" fill="white"/>
<path fill-rule="evenodd" clip-rule="evenodd" d="M70.6126 87.6504C70.4333 87.6761 70.2505 87.6596 70.0787 87.6024C69.9068 87.5451 69.7507 87.4486 69.6226 87.3205C69.4946 87.1925 69.3981 87.0363 69.3408 86.8645C69.2836 86.6927 69.2671 86.5099 69.2928 86.3306V78.0433C69.2661 77.6724 69.3875 77.3059 69.6304 77.0243C69.7443 76.9038 69.8827 76.8092 70.0362 76.7467C70.1897 76.6842 70.3549 76.6554 70.5205 76.6621C70.7831 76.6452 71.0446 76.7095 71.2694 76.8463C71.5032 77.0195 71.71 77.2264 71.8833 77.4601L76.3155 82.9482V77.9758C76.29 77.7987 76.306 77.6181 76.3623 77.4483C76.4186 77.2784 76.5136 77.124 76.6398 76.9972C76.766 76.8704 76.92 76.7746 77.0896 76.7175C77.2591 76.6605 77.4397 76.6436 77.6169 76.6682C77.7942 76.6528 77.9729 76.676 78.1403 76.7364C78.3078 76.7969 78.4602 76.893 78.5868 77.0182C78.7056 77.1462 78.7968 77.2973 78.8549 77.462C78.913 77.6267 78.9366 77.8016 78.9244 77.9758V86.392C78.9389 86.7281 78.8297 87.0579 78.6175 87.3189C78.5114 87.4307 78.3824 87.5182 78.2394 87.5754C78.0964 87.6326 77.9426 87.6582 77.7887 87.6504C77.5009 87.665 77.2146 87.6013 76.96 87.4662C76.7206 87.2997 76.5127 87.0918 76.3462 86.8524L71.914 81.3644V86.3306C71.9403 86.5084 71.925 86.6898 71.8691 86.8607C71.8133 87.0315 71.7186 87.1871 71.5924 87.315C71.4662 87.443 71.312 87.5399 71.142 87.5981C70.972 87.6563 70.7907 87.6742 70.6126 87.6504Z" fill="white"/>
<path fill-rule="evenodd" clip-rule="evenodd" d="M82.3866 87.2884C82.5281 87.4147 82.6931 87.5117 82.8722 87.5738C83.0513 87.636 83.2409 87.6621 83.4302 87.6506C83.6196 87.6642 83.8098 87.6391 83.9892 87.5768C84.1686 87.5146 84.3335 87.4164 84.4738 87.2884C84.6036 87.1441 84.7031 86.9752 84.7663 86.7917C84.8296 86.6083 84.8554 86.4139 84.8421 86.2203V78.0926C84.8554 77.899 84.8296 77.7047 84.7663 77.5212C84.7031 77.3377 84.6036 77.1688 84.4738 77.0245C84.1767 76.7895 83.809 76.6616 83.4302 76.6616C83.0514 76.6616 82.6837 76.7895 82.3866 77.0245C82.2568 77.1688 82.1573 77.3377 82.094 77.5212C82.0308 77.7047 82.005 77.899 82.0183 78.0926V86.2203C82.005 86.4139 82.0308 86.6083 82.094 86.7917C82.1573 86.9752 82.2568 87.1441 82.3866 87.2884Z" fill="white"/>
<path fill-rule="evenodd" clip-rule="evenodd" d="M21.9941 82.0397C21.9797 82.4045 21.8234 82.7492 21.5585 83.0003C21.2936 83.2515 20.9411 83.3892 20.5761 83.3841C20.2111 83.3892 19.8585 83.2515 19.5936 83.0003C19.3287 82.7492 19.1724 82.4045 19.158 82.0397V78.246C19.1319 78.0469 19.1525 77.8444 19.2181 77.6546C19.2837 77.4648 19.3926 77.2928 19.5361 77.1523C19.6795 77.0118 19.8537 76.9066 20.0449 76.8449C20.236 76.7833 20.4389 76.767 20.6374 76.7973H23.6577C25.5423 76.7973 26.9971 77.2638 28.0346 78.1969C28.5663 78.7054 28.9812 79.3234 29.2504 80.0082C29.5196 80.6929 29.6368 81.428 29.5938 82.1625C29.6402 82.8979 29.527 83.6347 29.2622 84.3223C28.9973 85.01 28.5869 85.6322 28.0591 86.1465C27.0217 87.0796 25.5668 87.5461 23.6822 87.5461H20.3366C20.0354 87.5461 19.7466 87.4265 19.5336 87.2135C19.3206 87.0005 19.201 86.7117 19.201 86.4105C19.201 86.1093 19.3206 85.8204 19.5336 85.6074C19.7466 85.3945 20.0354 85.2748 20.3366 85.2748H23.4735C23.9021 85.3118 24.3337 85.2635 24.7436 85.1329C25.1534 85.0023 25.5334 84.7918 25.8615 84.5136C26.1439 84.196 26.3591 83.8245 26.4942 83.4215C26.6292 83.0185 26.6813 82.5923 26.6472 82.1686C26.6843 81.7466 26.6337 81.3215 26.4984 80.9201C26.3632 80.5186 26.1463 80.1495 25.8615 79.8359C25.1964 79.2783 24.3386 79.0048 23.4735 79.0747H21.9941V82.0459V82.0397Z" fill="white"/>
</g>
<defs>
<clipPath id="clip0_302_19220">
<rect width="54.7368" height="54.7368" fill="white" transform="translate(24.6316 16.4211)"/>
</clipPath>
<clipPath id="clip1_302_19220">
<rect width="65.6842" height="11.0497" fill="white" transform="translate(19.1579 76.6316)"/>
</clipPath>
</defs>
</svg>
