<svg width="125" height="119" viewBox="0 0 125 119" fill="none" xmlns="http://www.w3.org/2000/svg">
<g clip-path="url(#clip0_201_1501)">
<path d="M93.7368 32.6295C93.7368 29.6822 91.9925 27.2276 89.6494 26.5425C87.2038 13.133 75.4846 2.9585 61.3684 2.9585C47.2522 2.9585 35.533 13.133 33.0874 26.5425C30.7443 27.2276 29 29.6822 29 32.6295C29 35.7513 30.9547 38.3264 33.5136 38.8191C36.6767 51.2738 47.9301 60.5024 61.3684 60.5024C74.8067 60.5024 86.0601 51.2738 89.2232 38.8191C91.7804 38.3264 93.7368 35.7513 93.7368 32.6295Z" fill="#F7DECE"/>
<path d="M61.3683 44.3172C55.9735 44.3172 54.1753 42.519 54.1753 46.1155C54.1753 49.712 57.7718 53.3085 61.3683 53.3085C64.9648 53.3085 68.5613 49.712 68.5613 46.1155C68.5613 42.519 66.763 44.3172 61.3683 44.3172Z" fill="#1F1F1F"/>
<path d="M69.4605 37.1245C71.9433 37.1245 73.9561 35.1118 73.9561 32.6289C73.9561 30.1461 71.9433 28.1333 69.4605 28.1333C66.9776 28.1333 64.9648 30.1461 64.9648 32.6289C64.9648 35.1118 66.9776 37.1245 69.4605 37.1245Z" fill="#1F1F1F"/>
<path d="M53.2764 37.1245C55.7592 37.1245 57.772 35.1118 57.772 32.6289C57.772 30.1461 55.7592 28.1333 53.2764 28.1333C50.7935 28.1333 48.7808 30.1461 48.7808 32.6289C48.7808 35.1118 50.7935 37.1245 53.2764 37.1245Z" fill="#1F1F1F"/>
<path d="M59.5703 46.1157H63.1668V47.914C63.1668 47.914 63.1668 49.7122 61.3686 49.7122C59.5703 49.7122 59.5703 47.914 59.5703 47.914V46.1157Z" fill="white"/>
<path fill-rule="evenodd" clip-rule="evenodd" d="M58.9684 8.35989L58.9687 8.36008L58.9882 8.32633L59.4567 7.51482L60.8051 5.1794L62.7994 6.33083C64.2398 7.16243 65.1212 8.11462 65.4436 9.1874C65.766 10.2602 65.5318 11.4815 64.7409 12.8514C63.95 14.2212 63.0056 15.0414 61.9076 15.3119C60.8312 15.5771 59.5659 15.2898 58.1117 14.4503L57.2827 13.9716L57.2729 13.9659L53.8802 12.0071C53.0046 11.5016 51.9107 11.7573 51.4368 12.5781C50.9629 13.3989 51.2885 14.4741 52.164 14.9796L55.2668 16.771L55.2668 16.771L56.6448 17.5667C59.1793 19.0299 61.4992 19.5536 63.6044 19.1377C65.7174 18.7084 67.4188 17.3766 68.7088 15.1423C69.9988 12.9079 70.2976 10.7752 69.6052 8.74399C68.9128 6.71282 67.2994 4.96559 64.7649 3.5023L60.6931 1.15144C59.3635 0.383814 58.334 0.631734 57.6045 1.8952L55.6342 5.30789L55.1657 6.1194L55.1462 6.15315L55.1465 6.15335C54.6034 7.13844 54.9989 8.41218 56.0425 9.01466C57.086 9.61715 58.3868 9.32282 58.9684 8.35989Z" fill="#927674"/>
</g>
<path d="M12.9513 116.496C12.3171 116.496 12 116.194 12 115.59V108.012C12 107.408 12.3171 107.107 12.9513 107.107H16.3087C17.3439 107.107 18.1459 107.324 18.7148 107.759C19.2837 108.185 19.5681 108.78 19.5681 109.544C19.5681 110.05 19.4329 110.485 19.1625 110.849C18.892 111.213 18.519 111.479 18.0433 111.648C18.6029 111.799 19.0366 112.065 19.3443 112.447C19.6614 112.82 19.82 113.295 19.82 113.872C19.82 114.707 19.5215 115.355 18.9246 115.817C18.3371 116.27 17.5164 116.496 16.4625 116.496H12.9513ZM13.7207 111.089H16.0009C17.2226 111.089 17.8335 110.64 17.8335 109.744C17.8335 108.847 17.2226 108.398 16.0009 108.398H13.7207V111.089ZM13.7207 115.204H16.2387C17.4698 115.204 18.0853 114.734 18.0853 113.792C18.0853 112.851 17.4698 112.381 16.2387 112.381H13.7207V115.204Z" fill="white"/>
<path d="M23.7156 116.629C23.2213 116.629 22.7783 116.541 22.3866 116.363C22.0043 116.176 21.7012 115.928 21.4773 115.617C21.2628 115.306 21.1556 114.956 21.1556 114.565C21.1556 114.085 21.2862 113.708 21.5473 113.433C21.8084 113.149 22.2328 112.945 22.8203 112.82C23.4078 112.696 24.1959 112.634 25.1845 112.634H25.6741V112.354C25.6741 111.91 25.5715 111.59 25.3663 111.395C25.1612 111.2 24.8161 111.102 24.3311 111.102C24.0607 111.102 23.7669 111.133 23.4498 111.195C23.1421 111.257 22.8156 111.364 22.4706 111.515C22.2467 111.613 22.0602 111.626 21.911 111.555C21.7618 111.475 21.6592 111.355 21.6032 111.195C21.5566 111.027 21.5659 110.858 21.6312 110.689C21.7058 110.521 21.8504 110.396 22.0649 110.316C22.4939 110.148 22.9042 110.028 23.2959 109.957C23.697 109.886 24.0607 109.85 24.3871 109.85C25.385 109.85 26.1264 110.072 26.6114 110.516C27.0963 110.951 27.3388 111.63 27.3388 112.554V115.75C27.3388 116.319 27.0683 116.603 26.5274 116.603C25.9772 116.603 25.7021 116.319 25.7021 115.75V115.457C25.5435 115.821 25.2917 116.11 24.9467 116.323C24.6016 116.527 24.1912 116.629 23.7156 116.629ZM24.0793 115.484C24.5363 115.484 24.914 115.333 25.2124 115.031C25.5202 114.729 25.6741 114.347 25.6741 113.886V113.593H25.1985C24.3218 113.593 23.7109 113.659 23.3659 113.792C23.0301 113.917 22.8623 114.148 22.8623 114.485C22.8623 114.778 22.9695 115.018 23.184 115.204C23.3985 115.391 23.697 115.484 24.0793 115.484Z" fill="white"/>
<path d="M33.0586 116.629C32.555 116.629 32.1074 116.527 31.7157 116.323C31.324 116.11 31.0302 115.826 30.8343 115.471V115.75C30.8343 116.319 30.5499 116.603 29.981 116.603C29.4028 116.603 29.1137 116.319 29.1137 115.75V107.839C29.1137 107.28 29.4028 107 29.981 107C30.5686 107 30.8623 107.28 30.8623 107.839V110.942C31.0675 110.614 31.3613 110.352 31.7436 110.156C32.1353 109.952 32.5737 109.85 33.0586 109.85C33.6648 109.85 34.1918 109.988 34.6394 110.263C35.0871 110.538 35.4368 110.929 35.6886 111.435C35.9404 111.932 36.0663 112.532 36.0663 113.233C36.0663 113.926 35.9404 114.529 35.6886 115.044C35.4368 115.55 35.0824 115.941 34.6254 116.216C34.1778 116.492 33.6555 116.629 33.0586 116.629ZM32.569 115.364C33.0913 115.364 33.5109 115.186 33.828 114.831C34.1451 114.467 34.3037 113.935 34.3037 113.233C34.3037 112.523 34.1451 111.994 33.828 111.648C33.5109 111.293 33.0913 111.115 32.569 111.115C32.0467 111.115 31.6271 111.293 31.31 111.648C30.9929 111.994 30.8343 112.523 30.8343 113.233C30.8343 113.935 30.9929 114.467 31.31 114.831C31.6271 115.186 32.0467 115.364 32.569 115.364Z" fill="white"/>
<path d="M39.0998 119C38.7827 119 38.5635 118.889 38.4423 118.667C38.321 118.445 38.3257 118.192 38.4563 117.908L39.2536 116.23L36.8615 110.982C36.7309 110.689 36.7309 110.432 36.8615 110.21C36.9921 109.988 37.2485 109.877 37.6309 109.877C37.8454 109.877 38.0179 109.926 38.1485 110.023C38.2791 110.112 38.3956 110.285 38.4982 110.543L40.1769 114.538L41.8976 110.529C42.0002 110.281 42.1214 110.112 42.2613 110.023C42.4012 109.926 42.5877 109.877 42.8209 109.877C43.1193 109.877 43.3292 109.988 43.4504 110.21C43.5716 110.432 43.567 110.685 43.4364 110.969L40.037 118.361C39.9158 118.609 39.7852 118.778 39.6453 118.867C39.5055 118.956 39.3236 119 39.0998 119Z" fill="white"/>
<path d="M51.1704 116.603C50.6854 116.603 50.3497 116.372 50.1631 115.91L48.1347 110.982C48.0135 110.671 48.0181 110.41 48.1487 110.196C48.2886 109.983 48.5311 109.877 48.8761 109.877C49.0813 109.877 49.2492 109.926 49.3797 110.023C49.5103 110.112 49.6222 110.285 49.7155 110.543L51.2543 114.552L52.8351 110.436C52.9843 110.063 53.2501 109.877 53.6324 109.877C54.0241 109.877 54.2899 110.063 54.4298 110.436L56.0106 114.592L57.5634 110.503C57.6567 110.263 57.7732 110.099 57.9131 110.01C58.0624 109.921 58.2256 109.877 58.4028 109.877C58.7385 109.877 58.9577 109.992 59.0602 110.223C59.1628 110.445 59.1535 110.698 59.0323 110.982L57.0178 115.91C56.822 116.372 56.4862 116.603 56.0106 116.603C55.5163 116.603 55.1806 116.372 55.0034 115.91L53.5765 112.301L52.1776 115.897C52.0004 116.367 51.6646 116.603 51.1704 116.603Z" fill="white"/>
<path d="M61.32 116.603C60.7418 116.603 60.4527 116.319 60.4527 115.75V107.839C60.4527 107.28 60.7418 107 61.32 107C61.9076 107 62.2014 107.28 62.2014 107.839V110.929C62.4345 110.574 62.7469 110.307 63.1386 110.13C63.5303 109.943 63.964 109.85 64.4396 109.85C66.0531 109.85 66.8598 110.743 66.8598 112.527V115.75C66.8598 116.319 66.5706 116.603 65.9924 116.603C65.4049 116.603 65.1111 116.319 65.1111 115.75V112.607C65.1111 112.101 65.0085 111.733 64.8033 111.502C64.6075 111.271 64.2997 111.155 63.8801 111.155C63.3671 111.155 62.9568 111.311 62.649 111.622C62.3506 111.923 62.2014 112.327 62.2014 112.834V115.75C62.2014 116.319 61.9076 116.603 61.32 116.603Z" fill="white"/>
<path d="M71.7554 116.629C71.0466 116.629 70.4311 116.492 69.9089 116.216C69.3866 115.941 68.9809 115.55 68.6918 115.044C68.4027 114.529 68.2581 113.926 68.2581 113.233C68.2581 112.541 68.4027 111.941 68.6918 111.435C68.9809 110.929 69.3866 110.538 69.9089 110.263C70.4311 109.988 71.0466 109.85 71.7554 109.85C72.4642 109.85 73.0797 109.988 73.602 110.263C74.1243 110.538 74.5299 110.929 74.819 111.435C75.1082 111.941 75.2527 112.541 75.2527 113.233C75.2527 113.926 75.1082 114.529 74.819 115.044C74.5299 115.55 74.1243 115.941 73.602 116.216C73.0797 116.492 72.4642 116.629 71.7554 116.629ZM71.7554 115.364C72.2777 115.364 72.6974 115.186 73.0145 114.831C73.3315 114.467 73.4901 113.935 73.4901 113.233C73.4901 112.523 73.3315 111.994 73.0145 111.648C72.6974 111.293 72.2777 111.115 71.7554 111.115C71.2332 111.115 70.8135 111.293 70.4964 111.648C70.1793 111.994 70.0208 112.523 70.0208 113.233C70.0208 113.935 70.1793 114.467 70.4964 114.831C70.8135 115.186 71.2332 115.364 71.7554 115.364Z" fill="white"/>
<path d="M81.557 116.603C80.9602 116.603 80.6617 116.31 80.6617 115.724V107.879C80.6617 107.293 80.9602 107 81.557 107C82.1539 107 82.4523 107.293 82.4523 107.879V115.724C82.4523 116.31 82.1539 116.603 81.557 116.603Z" fill="white"/>
<path d="M90.576 116.629C89.0185 116.629 88.2398 115.799 88.2398 114.139V107.839C88.2398 107.28 88.5289 107 89.1071 107C89.6947 107 89.9885 107.28 89.9885 107.839V114.059C89.9885 114.858 90.3382 115.257 91.0376 115.257C91.1123 115.257 91.1822 115.257 91.2475 115.257C91.3128 115.249 91.3781 115.24 91.4433 115.231C91.5739 115.213 91.6625 115.249 91.7091 115.337C91.7558 115.417 91.7791 115.586 91.7791 115.844C91.7791 116.065 91.7324 116.239 91.6392 116.363C91.5459 116.487 91.392 116.563 91.1775 116.589C90.9817 116.616 90.7812 116.629 90.576 116.629Z" fill="white"/>
<path d="M95.7583 116.629C95.0496 116.629 94.434 116.492 93.9118 116.216C93.3895 115.941 92.9838 115.55 92.6947 115.044C92.4056 114.529 92.261 113.926 92.261 113.233C92.261 112.541 92.4056 111.941 92.6947 111.435C92.9838 110.929 93.3895 110.538 93.9118 110.263C94.434 109.988 95.0496 109.85 95.7583 109.85C96.4671 109.85 97.0826 109.988 97.6049 110.263C98.1272 110.538 98.5329 110.929 98.822 111.435C99.1111 111.941 99.2556 112.541 99.2556 113.233C99.2556 113.926 99.1111 114.529 98.822 115.044C98.5329 115.55 98.1272 115.941 97.6049 116.216C97.0826 116.492 96.4671 116.629 95.7583 116.629ZM95.7583 115.364C96.2806 115.364 96.7003 115.186 97.0174 114.831C97.3344 114.467 97.493 113.935 97.493 113.233C97.493 112.523 97.3344 111.994 97.0174 111.648C96.7003 111.293 96.2806 111.115 95.7583 111.115C95.2361 111.115 94.8164 111.293 94.4993 111.648C94.1822 111.994 94.0237 112.523 94.0237 113.233C94.0237 113.935 94.1822 114.467 94.4993 114.831C94.8164 115.186 95.2361 115.364 95.7583 115.364Z" fill="white"/>
<path d="M103.332 116.603C102.866 116.603 102.521 116.367 102.297 115.897L100.073 110.982C99.9421 110.689 99.9375 110.432 100.059 110.21C100.189 109.988 100.446 109.877 100.828 109.877C101.043 109.877 101.215 109.926 101.346 110.023C101.476 110.112 101.593 110.285 101.695 110.543L103.374 114.538L105.109 110.529C105.211 110.281 105.328 110.112 105.459 110.023C105.598 109.926 105.785 109.877 106.018 109.877C106.317 109.877 106.526 109.988 106.648 110.21C106.769 110.432 106.764 110.685 106.634 110.969L104.367 115.897C104.162 116.367 103.817 116.603 103.332 116.603Z" fill="white"/>
<path d="M111.174 116.629C110.4 116.629 109.733 116.492 109.174 116.216C108.614 115.941 108.181 115.55 107.873 115.044C107.574 114.538 107.425 113.939 107.425 113.246C107.425 112.572 107.57 111.981 107.859 111.475C108.157 110.969 108.563 110.574 109.076 110.29C109.598 109.997 110.19 109.85 110.852 109.85C111.822 109.85 112.587 110.143 113.147 110.729C113.716 111.315 114 112.114 114 113.127C114 113.455 113.776 113.619 113.329 113.619H109.104C109.234 114.782 109.934 115.364 111.202 115.364C111.445 115.364 111.715 115.337 112.014 115.284C112.321 115.222 112.61 115.12 112.881 114.978C113.123 114.845 113.329 114.805 113.496 114.858C113.664 114.902 113.781 114.996 113.846 115.138C113.921 115.28 113.93 115.44 113.874 115.617C113.827 115.786 113.697 115.932 113.482 116.057C113.156 116.252 112.778 116.398 112.349 116.496C111.93 116.585 111.538 116.629 111.174 116.629ZM110.922 110.982C110.409 110.982 109.994 111.133 109.677 111.435C109.36 111.737 109.169 112.145 109.104 112.66H112.545C112.508 112.119 112.349 111.706 112.069 111.422C111.799 111.129 111.417 110.982 110.922 110.982Z" fill="white"/>
<g clip-path="url(#clip1_201_1501)">
<path fill-rule="evenodd" clip-rule="evenodd" d="M56.2965 98.1486C55.0617 98.1444 53.8299 98.0265 52.6166 97.7961C51.5046 97.5912 50.4245 97.2396 49.404 96.7504C48.9535 96.5629 48.5774 96.2307 48.3344 95.8056C48.0914 95.3805 47.9951 94.8865 48.0605 94.4006C48.1184 93.9724 48.2877 93.5671 48.5512 93.2257C48.8213 92.8667 49.2042 92.61 49.6376 92.4973C50.1487 92.3744 50.6865 92.4368 51.1563 92.6735C51.9557 93.0586 52.7993 93.3427 53.668 93.5195C54.5343 93.6871 55.4143 93.7737 56.2965 93.7779C57.2196 93.8527 58.1461 93.6826 58.9834 93.2845C59.2134 93.1579 59.4065 92.9732 59.5438 92.7486C59.681 92.524 59.7577 92.2673 59.7661 92.0038C59.7686 91.7924 59.7199 91.5835 59.6242 91.3952C59.5286 91.2069 59.3889 91.0448 59.2171 90.9229C58.6347 90.5663 57.9872 90.3306 57.3129 90.2297L53.9016 89.5013C50.1945 88.718 48.3448 86.7873 48.3526 83.7091C48.3255 82.4486 48.7023 81.2128 49.4273 80.1844C50.2126 79.1273 51.2771 78.3132 52.4998 77.8346C53.9449 77.242 55.4956 76.954 57.0558 76.9886C58.086 76.9911 59.1126 77.1093 60.1166 77.3411C61.0719 77.5165 61.9917 77.85 62.8386 78.328C63.1124 78.4461 63.3581 78.6213 63.5595 78.8421C63.7609 79.0628 63.9134 79.3241 64.0068 79.6087C64.1332 80.1092 64.0922 80.6378 63.89 81.1125C63.796 81.3574 63.6547 81.581 63.4742 81.7706C63.2937 81.9602 63.0777 82.1119 62.8386 82.2169C62.5367 82.3324 62.2137 82.3817 61.8913 82.3614C61.569 82.3412 61.2546 82.2518 60.9694 82.0994C60.3334 81.8533 59.6707 81.6837 58.9951 81.5942C58.321 81.466 57.6368 81.3991 56.9507 81.3945C56.0758 81.3387 55.2035 81.5387 54.439 81.9702C54.1807 82.1215 53.9674 82.3398 53.8215 82.6022C53.6756 82.8647 53.6024 83.1617 53.6096 83.4623C53.6072 83.6663 53.6537 83.8678 53.7452 84.0498C53.8367 84.2319 53.9705 84.389 54.1353 84.508C54.7052 84.8664 55.3408 85.1061 56.0044 85.2129L59.3923 85.9414C63.1384 86.7246 65.0153 88.6045 65.0231 91.5809C65.057 92.8423 64.6795 94.0801 63.9484 95.1056C63.1687 96.1535 62.1181 96.9662 60.911 97.4554C59.432 97.985 57.8648 98.2204 56.2965 98.1486Z" fill="white"/>
<path fill-rule="evenodd" clip-rule="evenodd" d="M44.1236 94.8351L36.8572 79.2442C36.6033 78.5914 36.1796 78.0193 35.6306 77.5875C35.1157 77.2315 34.5029 77.0467 33.8782 77.0588C33.246 77.0449 32.6253 77.2297 32.1025 77.5875C31.5286 78.008 31.0834 78.582 30.8175 79.2442L23.481 94.8351C23.2619 95.1728 23.1433 95.5665 23.1393 95.9698C23.1353 96.3731 23.246 96.7692 23.4584 97.1112C23.6709 97.4533 23.9761 97.7272 24.3382 97.9005C24.7003 98.0738 25.1041 98.1394 25.5021 98.0895C26.1139 98.1441 26.7224 97.9541 27.196 97.5608C27.6554 97.0732 28.0199 96.5033 28.2708 95.8807L29.2053 93.6719H38.411L39.3455 95.8807C39.5974 96.5258 39.9977 97.1016 40.5138 97.5608C41.0372 97.9447 41.678 98.1318 42.3245 98.0895C42.6942 98.1166 43.0646 98.0477 43.4001 97.8892C43.7356 97.7308 44.025 97.4882 44.2404 97.1849C44.4352 96.8195 44.5273 96.4077 44.5067 95.9936C44.4862 95.5796 44.3537 95.179 44.1236 94.8351ZM30.9577 89.5715L33.7614 82.9098H33.8198L36.6236 89.5715H30.9577Z" fill="white"/>
<path fill-rule="evenodd" clip-rule="evenodd" d="M88.8199 82.0055C87.9696 80.4479 86.6977 79.1647 85.1517 78.3046C83.4701 77.4069 81.5877 76.9579 79.6844 77.0004C77.7698 76.9571 75.8759 77.4059 74.1821 78.3046C72.6318 79.1629 71.3557 80.4463 70.5022 82.0055C69.6132 83.7187 69.1711 85.6308 69.2171 87.5628C69.1767 89.4983 69.6312 91.4119 70.5372 93.1201C71.3843 94.6781 72.6465 95.9679 74.1821 96.8445C75.8725 97.7412 77.7621 98.19 79.6727 98.1486C81.5761 98.1912 83.4584 97.7422 85.14 96.8445C86.685 95.9724 87.9558 94.682 88.8082 93.1201C89.7143 91.4119 90.1688 89.4983 90.1283 87.5628C90.1782 85.6276 89.7274 83.7127 88.8199 82.0055ZM83.2475 92.0744C82.7962 92.5778 82.2448 92.9803 81.629 93.2558C81.0132 93.5313 80.3467 93.6737 79.6727 93.6737C78.9988 93.6737 78.3323 93.5313 77.7165 93.2558C77.1007 92.9803 76.5493 92.5778 76.098 92.0744C75.1698 90.7623 74.7163 89.1701 74.8129 87.5628C74.7112 85.9622 75.1654 84.3757 76.098 83.0747C76.5534 82.572 77.1081 82.1704 77.7267 81.8956C78.3453 81.6208 79.014 81.4789 79.6903 81.4789C80.3665 81.4789 81.0353 81.6208 81.6538 81.8956C82.2724 82.1704 82.8271 82.572 83.2826 83.0747C84.2055 84.3804 84.6588 85.9633 84.5676 87.5628C84.654 89.1743 84.1881 90.7668 83.2475 92.0744Z" fill="white"/>
<path fill-rule="evenodd" clip-rule="evenodd" d="M97.9208 98.0894C97.5796 98.1385 97.2317 98.107 96.9047 97.9974C96.5777 97.8878 96.2806 97.7032 96.0368 97.4581C95.7931 97.2129 95.6095 96.9141 95.5005 96.5852C95.3916 96.2564 95.3603 95.9065 95.4091 95.5633V79.7022C95.3583 78.9922 95.5894 78.2909 96.0516 77.7519C96.2684 77.5213 96.5317 77.3402 96.8239 77.2206C97.1161 77.101 97.4304 77.0458 97.7456 77.0587C98.2453 77.0264 98.7429 77.1494 99.1708 77.4111C99.6156 77.7427 100.009 78.1386 100.339 78.586L108.774 89.0896V79.5729C108.725 79.234 108.756 78.8883 108.863 78.5633C108.97 78.2382 109.151 77.9427 109.391 77.6999C109.631 77.4572 109.924 77.274 110.247 77.1647C110.569 77.0555 110.913 77.0232 111.25 77.0704C111.588 77.0408 111.928 77.0853 112.246 77.2009C112.565 77.3166 112.855 77.5005 113.096 77.7401C113.322 77.9852 113.496 78.2743 113.606 78.5895C113.717 78.9048 113.762 79.2395 113.739 79.5729V95.6808C113.766 96.3241 113.558 96.9553 113.154 97.4549C112.953 97.6688 112.707 97.8362 112.435 97.9458C112.163 98.0553 111.87 98.1043 111.577 98.0894C111.03 98.1172 110.485 97.9954 110 97.7369C109.545 97.4182 109.149 97.0203 108.832 96.562L100.397 86.0584V95.5633C100.447 95.9036 100.418 96.2509 100.312 96.5779C100.206 96.9049 100.026 97.2025 99.7854 97.4475C99.5453 97.6924 99.2519 97.8779 98.9283 97.9893C98.6047 98.1007 98.2598 98.1349 97.9208 98.0894Z" fill="white"/>
<path fill-rule="evenodd" clip-rule="evenodd" d="M120.328 97.3965C120.597 97.6381 120.911 97.8238 121.252 97.9427C121.592 98.0617 121.953 98.1116 122.313 98.0897C122.674 98.1157 123.036 98.0676 123.377 97.9484C123.719 97.8293 124.033 97.6415 124.299 97.3965C124.547 97.1203 124.736 96.797 124.856 96.4459C124.977 96.0947 125.026 95.7227 125 95.3521V79.7965C125.026 79.4259 124.977 79.0539 124.856 78.7028C124.736 78.3516 124.547 78.0283 124.299 77.7521C123.734 77.3023 123.034 77.0576 122.313 77.0576C121.593 77.0576 120.893 77.3023 120.328 77.7521C120.08 78.0283 119.891 78.3516 119.771 78.7028C119.65 79.0539 119.601 79.4259 119.627 79.7965V95.3521C119.601 95.7227 119.65 96.0947 119.771 96.4459C119.891 96.797 120.08 97.1203 120.328 97.3965Z" fill="white"/>
<path fill-rule="evenodd" clip-rule="evenodd" d="M5.39757 87.351C5.37022 88.0491 5.07276 88.7088 4.56863 89.1895C4.06449 89.6702 3.39359 89.9338 2.69897 89.924C2.00436 89.9338 1.33345 89.6702 0.829323 89.1895C0.325191 88.7088 0.0277309 88.0491 0.000376761 87.351V80.0901C-0.0492688 79.709 -0.0101141 79.3215 0.114747 78.9582C0.239609 78.5949 0.446756 78.2658 0.719825 77.9969C0.992894 77.7279 1.3244 77.5266 1.68816 77.4086C2.05192 77.2907 2.43797 77.2594 2.8158 77.3174H8.56346C12.1499 77.3174 14.9186 78.2103 16.8929 79.9961C17.9048 80.9694 18.6943 82.1523 19.2067 83.4628C19.719 84.7733 19.942 86.1802 19.8602 87.586C19.9484 88.9935 19.7331 90.4037 19.229 91.7197C18.7249 93.0358 17.944 94.2268 16.9396 95.2111C14.9653 96.9969 12.1966 97.8899 8.61019 97.8899H2.24337C1.67018 97.8899 1.12046 97.6609 0.715158 97.2532C0.309851 96.8456 0.0821524 96.2928 0.0821524 95.7163C0.0821524 95.1398 0.309851 94.587 0.715158 94.1793C1.12046 93.7717 1.67018 93.5427 2.24337 93.5427H8.21299C9.02858 93.6135 9.85003 93.5211 10.63 93.2711C11.4099 93.0211 12.133 92.6182 12.7574 92.0858C13.2949 91.478 13.7045 90.7669 13.9615 89.9956C14.2184 89.2243 14.3175 88.4086 14.2527 87.5977C14.3233 86.7901 14.2269 85.9764 13.9695 85.2081C13.7122 84.4397 13.2995 83.7332 12.7574 83.1331C11.4918 82.0658 9.85929 81.5425 8.21299 81.6762H5.39757V87.3627V87.351Z" fill="white"/>
</g>
<defs>
<clipPath id="clip0_201_1501">
<rect width="64.7368" height="64.7368" fill="white" transform="translate(29)"/>
</clipPath>
<clipPath id="clip1_201_1501">
<rect width="125" height="21.1482" fill="white" transform="translate(0 77)"/>
</clipPath>
</defs>
</svg>
