<svg width="82" height="16" viewBox="0 0 82 16" fill="none" xmlns="http://www.w3.org/2000/svg">
<path d="M0.66 0.999999H7.02C8.54 0.999999 9.88 1.29333 11.04 1.88C12.2133 2.45333 13.12 3.26667 13.76 4.32C14.4133 5.37333 14.74 6.6 14.74 8C14.74 9.4 14.4133 10.6267 13.76 11.68C13.12 12.7333 12.2133 13.5533 11.04 14.14C9.88 14.7133 8.54 15 7.02 15H0.66V0.999999ZM6.86 12.34C8.26 12.34 9.37333 11.9533 10.2 11.18C11.04 10.3933 11.46 9.33333 11.46 8C11.46 6.66667 11.04 5.61333 10.2 4.84C9.37333 4.05333 8.26 3.66 6.86 3.66H3.9V12.34H6.86ZM26.2081 12H19.7081L18.4681 15H15.1481L21.3881 0.999999H24.5881L30.8481 15H27.4481L26.2081 12ZM25.1881 9.54L22.9681 4.18L20.7481 9.54H25.1881ZM36.9006 15.24C35.794 15.24 34.7206 15.0933 33.6806 14.8C32.654 14.4933 31.8273 14.1 31.2006 13.62L32.3006 11.18C32.9006 11.62 33.614 11.9733 34.4406 12.24C35.2673 12.5067 36.094 12.64 36.9206 12.64C37.8406 12.64 38.5206 12.5067 38.9606 12.24C39.4006 11.96 39.6206 11.5933 39.6206 11.14C39.6206 10.8067 39.4873 10.5333 39.2206 10.32C38.9673 10.0933 38.634 9.91333 38.2206 9.78C37.8206 9.64667 37.274 9.5 36.5806 9.34C35.514 9.08667 34.6406 8.83333 33.9606 8.58C33.2806 8.32667 32.694 7.92 32.2006 7.36C31.7206 6.8 31.4806 6.05333 31.4806 5.12C31.4806 4.30667 31.7006 3.57333 32.1406 2.92C32.5806 2.25333 33.2406 1.72667 34.1206 1.34C35.014 0.953333 36.1006 0.76 37.3806 0.76C38.274 0.76 39.1473 0.866666 40.0006 1.08C40.854 1.29333 41.6006 1.6 42.2406 2L41.2406 4.46C39.9473 3.72667 38.654 3.36 37.3606 3.36C36.454 3.36 35.7806 3.50667 35.3406 3.8C34.914 4.09333 34.7006 4.48 34.7006 4.96C34.7006 5.44 34.9473 5.8 35.4406 6.04C35.9473 6.26667 36.714 6.49333 37.7406 6.72C38.8073 6.97333 39.6806 7.22667 40.3606 7.48C41.0406 7.73333 41.6206 8.13333 42.1006 8.68C42.594 9.22667 42.8406 9.96667 42.8406 10.9C42.8406 11.7 42.614 12.4333 42.1606 13.1C41.7206 13.7533 41.054 14.2733 40.1606 14.66C39.2673 15.0467 38.1806 15.24 36.9006 15.24ZM51.8345 15.24C50.3812 15.24 49.0679 14.9267 47.8945 14.3C46.7345 13.6733 45.8212 12.8133 45.1545 11.72C44.5012 10.6133 44.1745 9.37333 44.1745 8C44.1745 6.62667 44.5012 5.39333 45.1545 4.3C45.8212 3.19333 46.7345 2.32667 47.8945 1.7C49.0679 1.07333 50.3812 0.76 51.8345 0.76C53.2879 0.76 54.5945 1.07333 55.7545 1.7C56.9145 2.32667 57.8279 3.19333 58.4945 4.3C59.1612 5.39333 59.4945 6.62667 59.4945 8C59.4945 9.37333 59.1612 10.6133 58.4945 11.72C57.8279 12.8133 56.9145 13.6733 55.7545 14.3C54.5945 14.9267 53.2879 15.24 51.8345 15.24ZM51.8345 12.48C52.6612 12.48 53.4079 12.2933 54.0745 11.92C54.7412 11.5333 55.2612 11 55.6345 10.32C56.0212 9.64 56.2145 8.86667 56.2145 8C56.2145 7.13333 56.0212 6.36 55.6345 5.68C55.2612 5 54.7412 4.47333 54.0745 4.1C53.4079 3.71333 52.6612 3.52 51.8345 3.52C51.0079 3.52 50.2612 3.71333 49.5945 4.1C48.9279 4.47333 48.4012 5 48.0145 5.68C47.6412 6.36 47.4545 7.13333 47.4545 8C47.4545 8.86667 47.6412 9.64 48.0145 10.32C48.4012 11 48.9279 11.5333 49.5945 11.92C50.2612 12.2933 51.0079 12.48 51.8345 12.48ZM74.7695 0.999999V15H72.1095L65.1295 6.5V15H61.9295V0.999999H64.6095L71.5695 9.5V0.999999H74.7695ZM78.0819 0.999999H81.3219V15H78.0819V0.999999Z" fill="#1F1F1F"/>
</svg>
