<svg width="36" height="36" viewBox="0 0 36 36" fill="none" xmlns="http://www.w3.org/2000/svg">
<path d="M2 8C0 8 0 10 0 10V31C0 31 0 33 2 33H34C36 33 36 31 36 31V10C36 10 36 8 34 8H2Z" fill="#5C913B"/>
<path d="M2 3C0 3 0 5 0 5V25C0 25 0 27 2 27H34C36 27 36 25 36 25V5C36 5 36 3 34 3H2Z" fill="#A7D28B"/>
<path d="M25 21.5C28.5899 21.5 31.5 18.5899 31.5 15C31.5 11.4101 28.5899 8.5 25 8.5C21.4101 8.5 18.5 11.4101 18.5 15C18.5 18.5899 21.4101 21.5 25 21.5Z" fill="#77B255"/>
<path d="M33 25.5H3C2.173 25.5 1.5 24.827 1.5 24V6C1.5 5.173 2.173 4.5 3 4.5H33C33.827 4.5 34.5 5.173 34.5 6V24C34.5 24.827 33.827 25.5 33 25.5ZM3 5.5C2.725 5.5 2.5 5.724 2.5 6V24C2.5 24.275 2.725 24.5 3 24.5H33C33.275 24.5 33.5 24.275 33.5 24V6C33.5 5.724 33.275 5.5 33 5.5H3Z" fill="#5C913B"/>
<path d="M14 3H22V27.062H14V3Z" fill="#FFE8B6"/>
<path d="M14 27H22V33H14V27Z" fill="#FFAC33"/>
<path d="M11.8095 17.0233C11.8095 14.0443 6.31645 14.2383 6.31645 12.4393C6.31645 11.5683 7.14945 11.1433 8.11545 11.1433C9.74045 11.1433 10.0295 12.1873 10.7655 12.1873C11.2865 12.1873 11.5375 11.8593 11.5375 11.4913C11.5375 10.6353 10.2415 9.9893 8.99845 9.7653V8.9403C8.99845 8.4253 8.58145 8.0083 8.06645 8.0083C7.55145 8.0083 7.13445 8.4263 7.13445 8.9403V9.7933C5.78045 10.1033 4.61345 11.0433 4.61345 12.5743C4.61345 15.4363 10.1065 15.3203 10.1065 17.3323C10.1065 18.0273 9.35245 18.7233 8.11445 18.7233C6.25745 18.7233 5.63845 17.4663 4.88545 17.4663C4.51745 17.4663 4.18945 17.7753 4.18945 18.2413C4.18945 18.9823 5.42945 19.8723 7.13645 20.1223L7.13545 20.1263V21.0603C7.13545 21.5743 7.55345 21.9923 8.06845 21.9923C8.58245 21.9913 8.99945 21.5733 8.99945 21.0603V20.1263C8.99945 20.1163 8.99445 20.1073 8.99345 20.0983C10.5285 19.8113 11.8095 18.8123 11.8095 17.0233Z" fill="#5C913B"/>
</svg>
