<svg width="36" height="36" viewBox="0 0 36 36" fill="none" xmlns="http://www.w3.org/2000/svg">
<path d="M1.53711 23.8993C1.12311 23.8993 0.787109 24.2353 0.787109 24.6493C0.787109 25.0643 1.12311 25.3993 1.53711 25.3993H19.5371V23.8993H1.53711ZM35.2081 15.9443H22.7081V17.4443H35.2081C35.6221 17.4443 35.9581 17.1083 35.9581 16.6943C35.9581 16.2793 35.6231 15.9443 35.2081 15.9443Z" fill="#292F33"/>
<path d="M23.2158 8.56134L28.9578 2.81934L34.7008 8.56134V15.9443H23.2158V8.56134Z" fill="#FFCC4D"/>
<path d="M34.7005 9.382C34.4905 9.382 34.2805 9.302 34.1205 9.142L28.9585 3.98L23.7965 9.142C23.4765 9.462 22.9565 9.462 22.6365 9.142C22.3165 8.822 22.3165 8.302 22.6365 7.982L28.3785 2.24C28.6985 1.92 29.2185 1.92 29.5385 2.24L35.2805 7.982C35.6005 8.302 35.6005 8.822 35.2805 9.142C35.1195 9.301 34.9095 9.382 34.7005 9.382Z" fill="#292F33"/>
<path d="M27.3184 10.2021H30.5994V15.9441H27.3184V10.2021Z" fill="#662113"/>
<path d="M24.8564 10.2021H26.4974V11.8431H24.8564V10.2021ZM31.4184 10.2021H33.0594V11.8431H31.4184V10.2021ZM31.4184 12.6631H33.0594V14.3041H31.4184V12.6631Z" fill="#3B88C3"/>
<path d="M10.5362 4.19629L2.24023 12.4923V23.8993H18.8322V12.4923L10.5362 4.19629Z" fill="#FFCC4D"/>
<path d="M19.8697 14.5659C19.6047 14.5659 19.3387 14.4649 19.1367 14.2619L10.5367 5.66193L1.93674 14.2619C1.53174 14.6669 0.875742 14.6669 0.470742 14.2619C0.0657422 13.8569 0.0657422 13.2009 0.470742 12.7959L9.80374 3.46293C10.2087 3.05793 10.8647 3.05793 11.2697 3.46293L20.6027 12.7959C21.0077 13.2009 21.0077 13.8569 20.6027 14.2619C20.4007 14.4639 20.1357 14.5659 19.8697 14.5659Z" fill="#292F33"/>
<path d="M8.46289 14.5659H12.6109V23.8989H8.46289V14.5659Z" fill="#662113"/>
<path d="M4.31445 14.5659H7.42545V17.6769H4.31445V14.5659ZM4.31445 18.7139H7.42545V21.8249H4.31445V18.7139Z" fill="#3B88C3"/>
<path d="M21.4771 7.375L10.9541 17.932V32.451H32.0001V17.932L21.4771 7.375Z" fill="#FFE8B6"/>
<path d="M33 31.9453H10C9.448 31.9453 9 32.3943 9 32.9483C9 33.5023 9.448 33.9513 10 33.9513H33C33.552 33.9513 34 33.5023 34 32.9483C34 32.3943 33.552 31.9453 33 31.9453Z" fill="#66757F"/>
<path d="M21 17.937H22V31.937H21V17.937Z" fill="#FFCC4D"/>
<path d="M14 25.937H18V31.937H14V25.937Z" fill="#C1694F"/>
<path d="M14 18.937H18V22.937H14V18.937ZM25 18.937H29V22.937H25V18.937ZM25 25.937H29V29.937H25V25.937Z" fill="#55ACEE"/>
<path d="M21.0003 18.54C20.7443 18.54 20.4882 18.442 20.2932 18.247C19.9022 17.856 19.9022 17.224 20.2932 16.833L26.7933 10.333L28.2073 11.747L21.7073 18.247C21.5123 18.443 21.2563 18.54 21.0003 18.54Z" fill="#66757F"/>
<path d="M32.884 18.5403C32.619 18.5403 32.353 18.4393 32.151 18.2363L21.477 7.56232L10.803 18.2363C10.398 18.6413 9.74195 18.6413 9.33695 18.2363C8.93195 17.8313 8.93195 17.1753 9.33695 16.7703L20.744 5.36332C21.149 4.95832 21.805 4.95832 22.21 5.36332L33.617 16.7703C34.022 17.1753 34.022 17.8313 33.617 18.2363C33.415 18.4393 33.15 18.5403 32.884 18.5403Z" fill="#66757F"/>
</svg>
