<svg width="36" height="36" viewBox="0 0 36 36" fill="none" xmlns="http://www.w3.org/2000/svg">
<path d="M28.977 16.492L28.988 16.486C27.522 17.146 25.886 17.281 24.312 16.858C22.686 16.422 21.306 15.435 20.365 14.062C20.384 14.09 20.399 14.12 20.419 14.148L19 14L18.787 15.302C19.806 16.745 21.213 17.837 22.856 18.476L22.772 18.787C22.364 20.308 22.497 22.083 22.638 23.963C22.822 26.413 23.013 28.947 21.973 30.896C20.995 32.725 19.052 33.815 16.768 33.815H16.736C14.607 33.805 12.673 32.835 11.923 31.4C11.385 30.37 11.326 28.969 11.263 27.488C11.162 25.095 11.049 22.384 8.99497 20.045L5.04597 15.544L3.54297 16.863L7.49197 21.363C9.07997 23.174 9.17397 25.409 9.26497 27.572C9.33397 29.208 9.40497 30.9 10.15 32.326C11.251 34.432 13.832 35.802 16.727 35.815H16.769C19.804 35.815 22.407 34.331 23.737 31.838C25.051 29.377 24.829 26.421 24.632 23.813C24.504 22.109 24.383 20.498 24.703 19.307L24.788 18.989C25.239 19.058 25.69 19.102 26.14 19.102C27.392 19.101 28.627 18.825 29.784 18.307L30 17L28.977 16.492Z" fill="#31373D"/>
<path d="M1.25806 18.8669C-0.198942 17.2069 -0.0339419 14.6789 1.62606 13.2219C3.28606 11.7649 5.81406 11.9299 7.27106 13.5899C8.72806 15.2509 8.56306 17.7779 6.90306 19.2349C5.24306 20.6919 2.71506 20.5279 1.25806 18.8669Z" fill="#99AAB5"/>
<path d="M2.76156 17.5479C2.03256 16.7179 2.11556 15.4539 2.94556 14.7259C3.77556 13.9969 5.03956 14.0799 5.76756 14.9099C6.49656 15.7399 6.41356 17.0039 5.58356 17.7319C4.75356 18.4609 3.48956 18.3779 2.76156 17.5479Z" fill="#31373D"/>
<path d="M29.7907 18.3182L28.9767 16.4922C30.9127 15.6272 32.3387 13.9582 32.8877 11.9132L33.6657 9.01621C33.9517 7.95121 33.3177 6.85221 32.2527 6.56521L32.7727 4.63321C34.9027 5.20621 36.1697 7.40421 35.5977 9.53421L34.8197 12.4312C34.1127 15.0612 32.2797 17.2062 29.7907 18.3182ZM18.7847 15.3042C17.2297 13.1072 16.7377 10.3582 17.4347 7.76221L18.2127 4.86521C18.7847 2.73421 20.9837 1.46721 23.1127 2.03921L22.5937 3.97121C21.5267 3.68521 20.4297 4.31921 20.1437 5.38421L19.3657 8.28221C18.8227 10.3012 19.2057 12.4402 20.4167 14.1492L18.7847 15.3042Z" fill="#99AAB5"/>
<path d="M22.56 6.03182C21.76 5.81682 21.286 4.99382 21.501 4.19382L22.279 1.29682C22.494 0.496824 23.317 0.0228241 24.117 0.237824C24.917 0.452824 25.391 1.27582 25.176 2.07582L24.398 4.97282C24.183 5.77282 23.36 6.24682 22.56 6.03182ZM31.252 8.36682C30.452 8.15182 29.978 7.32882 30.193 6.52882L30.971 3.63182C31.186 2.83182 32.009 2.35782 32.809 2.57282C33.609 2.78782 34.083 3.61082 33.869 4.41082L33.091 7.30782C32.875 8.10782 32.052 8.58182 31.252 8.36682Z" fill="#31373D"/>
</svg>
