<svg width="72" height="72" viewBox="0 0 72 72" fill="none" xmlns="http://www.w3.org/2000/svg">
<path fill-rule="evenodd" clip-rule="evenodd" d="M72 36.8573C72 33.266 70.3584 29.7145 67.4564 27.613C63.7556 13.6979 51.0957 3.42871 36 3.42871C20.9043 3.42871 8.24437 13.698 4.54362 27.6131C1.64157 29.7145 0 33.266 0 36.8573C0 40.6837 1.89098 44.5368 5.21525 46.5561C9.59894 59.3466 21.6965 68.5716 36 68.5716C50.3037 68.5716 62.4015 59.3463 66.785 46.5555C70.1077 44.5364 72 40.6845 72 36.8573Z" fill="#6DCDF5"/>
<path d="M66.8571 36.8575C66.8571 34.0478 65.1943 31.7078 62.9606 31.0546C60.6292 18.2712 49.4571 8.57178 36 8.57178C22.5429 8.57178 11.3709 18.2712 9.03943 31.0546C6.80571 31.7078 5.14286 34.0478 5.14286 36.8575C5.14286 39.8335 7.00629 42.2883 9.44571 42.7581C12.4611 54.6312 23.1891 63.4289 36 63.4289C48.8109 63.4289 59.5389 54.6312 62.5543 42.7581C64.992 42.2883 66.8571 39.8335 66.8571 36.8575Z" fill="#F7DECE"/>
<path d="M43.7143 41.1432C46.0812 41.1432 48 39.2244 48 36.8575C48 34.4906 46.0812 32.5718 43.7143 32.5718C41.3473 32.5718 39.4286 34.4906 39.4286 36.8575C39.4286 39.2244 41.3473 41.1432 43.7143 41.1432Z" fill="#1F1F1F"/>
<path d="M28.2857 41.1432C30.6527 41.1432 32.5714 39.2244 32.5714 36.8575C32.5714 34.4906 30.6527 32.5718 28.2857 32.5718C25.9188 32.5718 24 34.4906 24 36.8575C24 39.2244 25.9188 41.1432 28.2857 41.1432Z" fill="#1F1F1F"/>
<path d="M42.8433 52.5046C42.8021 52.3205 41.7754 48.0005 36 48.0005C30.2237 48.0005 29.1979 52.3205 29.1567 52.5046C29.1064 52.7278 29.196 52.9592 29.3734 53.0744C29.5517 53.1886 29.7748 53.1547 29.922 52.9952C29.9393 52.9757 31.7084 51.0862 36 51.0862C40.2916 51.0862 42.0616 52.9757 42.078 52.9942C42.1658 53.0919 42.2828 53.1433 42.3999 53.1433C42.4767 53.1433 42.5544 53.1217 42.6248 53.0775C42.804 52.9623 42.8936 52.7288 42.8433 52.5046Z" fill="#1F1F1F"/>
<path fill-rule="evenodd" clip-rule="evenodd" d="M33.7122 13.721L33.7125 13.7212L33.7311 13.689L34.1778 12.9154L35.4632 10.689L37.3644 11.7867C38.7375 12.5795 39.5777 13.4872 39.8851 14.5099C40.1925 15.5326 39.9691 16.6969 39.2152 18.0028C38.4612 19.3087 37.5609 20.0906 36.5142 20.3484C35.4881 20.6012 34.2818 20.3274 32.8955 19.527L32.1052 19.0707L32.0959 19.0653L28.8616 17.198C28.0269 16.7161 26.984 16.9598 26.5322 17.7423C26.0805 18.5248 26.3909 19.5498 27.2255 20.0317L30.1835 21.7394L30.1834 21.7395L31.4971 22.4979C33.9133 23.8929 36.1249 24.3921 38.1318 23.9956C40.1461 23.5864 41.7681 22.3168 42.9979 20.1867C44.2276 18.0567 44.5125 16.0235 43.8524 14.0872C43.1923 12.1509 41.6542 10.4852 39.2381 9.09024L35.3564 6.84915C34.0889 6.11736 33.1074 6.3537 32.412 7.55818L30.5337 10.8115L30.0871 11.5851L30.0685 11.6173L30.0688 11.6175C29.551 12.5566 29.9281 13.7709 30.9229 14.3452C31.9177 14.9196 33.1578 14.639 33.7122 13.721Z" fill="#927674"/>
</svg>
