<svg width="72" height="72" viewBox="0 0 72 72" fill="none" xmlns="http://www.w3.org/2000/svg">
<path fill-rule="evenodd" clip-rule="evenodd" d="M72 36.8573C72 33.266 70.3584 29.7145 67.4564 27.613C63.7556 13.6979 51.0957 3.42871 36 3.42871C20.9043 3.42871 8.24437 13.698 4.54362 27.6131C1.64157 29.7145 0 33.266 0 36.8573C0 40.6837 1.89098 44.5368 5.21525 46.5561C9.59894 59.3466 21.6965 68.5716 36 68.5716C50.3037 68.5716 62.4015 59.3463 66.785 46.5555C70.1077 44.5364 72 40.6845 72 36.8573Z" fill="#2196F3"/>
<path d="M66.8571 36.8575C66.8571 34.0478 65.1943 31.7078 62.9606 31.0546C60.6292 18.2712 49.4571 8.57178 36 8.57178C22.5429 8.57178 11.3709 18.2712 9.03943 31.0546C6.80571 31.7078 5.14286 34.0478 5.14286 36.8575C5.14286 39.8335 7.00629 42.2883 9.44571 42.7581C12.4611 54.6312 23.1891 63.4289 36 63.4289C48.8109 63.4289 59.5389 54.6312 62.5543 42.7581C64.992 42.2883 66.8571 39.8335 66.8571 36.8575Z" fill="#F7DECE"/>
<path fill-rule="evenodd" clip-rule="evenodd" d="M49.7143 59.748V37.4658H43.4286V62.4084C45.6517 61.7826 47.7596 60.8829 49.7143 59.748ZM28.5714 62.4084V37.4658H22.2857V59.748C24.2403 60.8829 26.3483 61.7826 28.5714 62.4084Z" fill="#5DADEC"/>
<path d="M42.1441 52.1454C42.1441 56.4872 39.3297 56.8596 35.8584 56.8596C32.3855 56.8596 29.5727 56.4872 29.5727 52.1454C29.5727 47.8067 32.3855 42.7168 35.8584 42.7168C39.3297 42.7168 42.1441 47.8067 42.1441 52.1454Z" fill="#1F1F1F"/>
<path d="M34.2857 44.5713H37.7143V46.2856C37.7143 46.2856 37.7143 47.9999 36 47.9999C34.2857 47.9999 34.2857 46.2856 34.2857 46.2856V44.5713Z" fill="white"/>
<path d="M35.8583 55.2882C38.462 55.2882 40.5726 53.8811 40.5726 52.1453C40.5726 50.4095 38.462 49.0024 35.8583 49.0024C33.2547 49.0024 31.144 50.4095 31.144 52.1453C31.144 53.8811 33.2547 55.2882 35.8583 55.2882Z" fill="#E75A70"/>
<path fill-rule="evenodd" clip-rule="evenodd" d="M28.2845 25.8965C28.9935 26.3692 29.1851 27.3271 28.7124 28.0361C27.7409 29.4933 26.3324 30.8878 24.9878 32.0083C23.6438 33.1283 22.2577 34.0621 21.2615 34.5602C20.4994 34.9413 19.5726 34.6323 19.1915 33.8702C18.8105 33.1081 19.1194 32.1813 19.8815 31.8003C20.5996 31.4412 21.7849 30.6607 23.0124 29.6378C24.2392 28.6155 25.4022 27.4386 26.1449 26.3244C26.6176 25.6154 27.5755 25.4238 28.2845 25.8965ZM28.2113 36.5858C29.7831 36.8407 30.8267 37.3626 31.651 37.8572C32.3817 38.2956 32.6186 39.2433 32.1802 39.974C31.7418 40.7047 30.7941 40.9416 30.0634 40.5032C29.4592 40.1407 28.7885 39.8054 27.7174 39.6318C26.6119 39.4525 25.0041 39.4342 22.5394 39.8449C21.6989 39.985 20.904 39.4172 20.7639 38.5767C20.6239 37.7362 21.1917 36.9413 22.0322 36.8012C24.7104 36.3548 26.6739 36.3365 28.2113 36.5858Z" fill="#1F1F1F"/>
<path fill-rule="evenodd" clip-rule="evenodd" d="M43.7157 25.8965C43.0067 26.3692 42.8151 27.3271 43.2878 28.0361C44.2593 29.4933 45.6677 30.8878 47.0124 32.0083C48.3564 33.1283 49.7425 34.0621 50.7387 34.5602C51.5008 34.9413 52.4276 34.6323 52.8086 33.8702C53.1897 33.1081 52.8808 32.1813 52.1186 31.8003C51.4006 31.4412 50.2152 30.6607 48.9878 29.6378C47.761 28.6155 46.598 27.4386 45.8553 26.3244C45.3826 25.6154 44.4247 25.4238 43.7157 25.8965ZM43.7888 36.5858C42.2171 36.8407 41.1735 37.3626 40.3492 37.8572C39.6185 38.2956 39.3816 39.2433 39.82 39.974C40.2584 40.7047 41.2061 40.9416 41.9367 40.5032C42.541 40.1407 43.2117 39.8054 44.2828 39.6318C45.3882 39.4525 46.9961 39.4342 49.4607 39.8449C50.3012 39.985 51.0962 39.4172 51.2362 38.5767C51.3763 37.7362 50.8085 36.9413 49.968 36.8012C47.2898 36.3548 45.3262 36.3365 43.7888 36.5858Z" fill="#1F1F1F"/>
<path fill-rule="evenodd" clip-rule="evenodd" d="M33.7122 13.721L33.7125 13.7212L33.7311 13.689L34.1778 12.9154L35.4632 10.689L37.3644 11.7867C38.7375 12.5795 39.5777 13.4872 39.8851 14.5099C40.1925 15.5326 39.9691 16.6969 39.2152 18.0028C38.4612 19.3087 37.5609 20.0906 36.5142 20.3484C35.4881 20.6012 34.2818 20.3274 32.8955 19.527L32.1052 19.0707L32.0959 19.0653L28.8616 17.198C28.0269 16.7161 26.984 16.9598 26.5322 17.7423C26.0805 18.5248 26.3909 19.5498 27.2255 20.0317L30.1835 21.7394L30.1834 21.7395L31.4971 22.4979C33.9133 23.8929 36.1249 24.3921 38.1318 23.9956C40.1461 23.5864 41.7681 22.3168 42.9979 20.1867C44.2276 18.0567 44.5125 16.0235 43.8524 14.0872C43.1923 12.1509 41.6542 10.4852 39.2381 9.09024L35.3564 6.84915C34.0889 6.11736 33.1074 6.3537 32.412 7.55818L30.5337 10.8115L30.0871 11.5851L30.0685 11.6173L30.0688 11.6175C29.551 12.5566 29.9281 13.7709 30.9229 14.3452C31.9177 14.9196 33.1578 14.639 33.7122 13.721Z" fill="#927674"/>
</svg>
