<svg width="72" height="72" viewBox="0 0 72 72" fill="none" xmlns="http://www.w3.org/2000/svg">
<path fill-rule="evenodd" clip-rule="evenodd" d="M72 36.8573C72 33.266 70.3584 29.7145 67.4564 27.613C63.7556 13.6979 51.0957 3.42871 36 3.42871C20.9043 3.42871 8.24437 13.698 4.54362 27.6131C1.64157 29.7145 0 33.266 0 36.8573C0 40.6837 1.89098 44.5368 5.21525 46.5561C9.59894 59.3466 21.6965 68.5716 36 68.5716C50.3037 68.5716 62.4015 59.3463 66.785 46.5555C70.1077 44.5364 72 40.6845 72 36.8573Z" fill="#4CC968"/>
<path d="M66.8571 36.8575C66.8571 34.0478 65.1943 31.7078 62.9606 31.0546C60.6292 18.2712 49.4571 8.57178 36 8.57178C22.5429 8.57178 11.3709 18.2712 9.03943 31.0546C6.80571 31.7078 5.14286 34.0478 5.14286 36.8575C5.14286 39.8335 7.00629 42.2883 9.44571 42.7581C12.4611 54.6312 23.1891 63.4289 36 63.4289C48.8109 63.4289 59.5389 54.6312 62.5543 42.7581C64.992 42.2883 66.8571 39.8335 66.8571 36.8575Z" fill="#F7DECE"/>
<path d="M26.5713 32.5718C30.5154 32.5718 32.4341 36.6372 32.5141 36.8108C32.6368 37.0782 32.5581 37.3919 32.3208 37.5745C32.1994 37.6671 32.0514 37.7146 31.9048 37.7146C31.7661 37.7146 31.6248 37.6722 31.5074 37.5873C31.4701 37.5616 29.806 36.4289 26.5713 36.4289C23.3166 36.4289 21.6512 37.5771 21.6339 37.5886C21.3899 37.7596 21.0552 37.7532 20.8205 37.5706C20.5859 37.3881 20.5059 37.0769 20.6285 36.8108C20.7085 36.6372 22.6286 32.5718 26.5713 32.5718Z" fill="#1F1F1F"/>
<path d="M45.4285 32.5718C49.3725 32.5718 51.2912 36.6372 51.3713 36.8108C51.4939 37.0782 51.4153 37.3919 51.1779 37.5745C51.0566 37.6671 50.9086 37.7146 50.7619 37.7146C50.6232 37.7146 50.4819 37.6722 50.3646 37.5873C50.3272 37.5616 48.6632 36.4289 45.4285 36.4289C42.1737 36.4289 40.5084 37.5771 40.491 37.5886C40.247 37.7596 39.9123 37.7532 39.6777 37.5706C39.443 37.3881 39.363 37.0769 39.4857 36.8108C39.5657 36.6372 41.4857 32.5718 45.4285 32.5718Z" fill="#1F1F1F"/>
<path d="M26.1818 44.6115C29.4251 45.24 32.0476 45.6988 36 45.6988C39.9524 45.6988 42.5749 45.24 45.8182 44.6115C46.5589 44.468 48 44.6115 48 46.7861C48 51.1353 42.9862 56.5718 36 56.5718C29.0127 56.5718 24 51.1353 24 46.7861C24 44.6115 25.4411 44.4691 26.1818 44.6115Z" fill="#1F1F1F"/>
<path d="M36 54.8576C39.7871 54.8576 42.8571 53.3226 42.8571 51.4291C42.8571 49.5355 39.7871 48.0005 36 48.0005C32.2129 48.0005 29.1429 49.5355 29.1429 51.4291C29.1429 53.3226 32.2129 54.8576 36 54.8576Z" fill="#E75A70"/>
<path d="M34.2857 47.1431H37.7143V48.8574C37.7143 48.8574 37.7143 50.5716 36 50.5716C34.2857 50.5716 34.2857 48.8574 34.2857 48.8574V47.1431Z" fill="white"/>
<path fill-rule="evenodd" clip-rule="evenodd" d="M33.7122 13.721L33.7125 13.7212L33.7311 13.689L34.1778 12.9154L35.4632 10.689L37.3644 11.7867C38.7375 12.5795 39.5777 13.4872 39.8851 14.5099C40.1925 15.5326 39.9691 16.6969 39.2152 18.0028C38.4612 19.3087 37.5609 20.0906 36.5142 20.3484C35.4881 20.6012 34.2818 20.3274 32.8955 19.527L32.1052 19.0707L32.0959 19.0653L28.8616 17.198C28.0269 16.7161 26.984 16.9598 26.5322 17.7423C26.0805 18.5248 26.3909 19.5498 27.2255 20.0317L30.1835 21.7394L30.1834 21.7395L31.4971 22.4979C33.9133 23.8929 36.1249 24.3921 38.1318 23.9956C40.1461 23.5864 41.7681 22.3168 42.9979 20.1867C44.2276 18.0567 44.5125 16.0235 43.8524 14.0872C43.1923 12.1509 41.6542 10.4852 39.2381 9.09024L35.3564 6.84915C34.0889 6.11736 33.1074 6.3537 32.412 7.55818L30.5337 10.8115L30.0871 11.5851L30.0685 11.6173L30.0688 11.6175C29.551 12.5566 29.9281 13.7709 30.9229 14.3452C31.9177 14.9196 33.1578 14.639 33.7122 13.721Z" fill="#927674"/>
</svg>
