<svg width="24" height="24" viewBox="0 0 24 24" fill="none" xmlns="http://www.w3.org/2000/svg">
<mask id="mask0_212_3906" style="mask-type:alpha" maskUnits="userSpaceOnUse" x="0" y="0" width="24" height="24">
<circle cx="12" cy="12" r="12" fill="#C4C4C4"/>
</mask>
<g mask="url(#mask0_212_3906)">
<circle cx="12" cy="12" r="12" fill="#B5E32F"/>
<path d="M33.0106 22.0209L32.6279 12.9702C32.7826 8.55423 29.3279 4.85023 24.9119 4.69557L11.5866 4.23023C7.17059 4.07557 4.76659 7.12223 3.31192 11.9462L2.41992 20.3409L33.0106 22.0209Z" fill="#C2C2C2"/>
<path d="M13.4668 4.94267C13.4668 5.86534 15.9215 7 18.0001 7C20.0801 7 22.5335 5.86534 22.5335 4.94267V1H13.4668V4.94267Z" fill="#F7DECE"/>
<path d="M13.4668 2.7422C14.7295 4.15287 16.2961 4.5342 18.0001 4.5342C19.7028 4.5342 21.2695 4.15153 22.5335 2.7422V-0.841797H13.4668V2.7422Z" fill="#D79E7A"/>
<path d="M9.47483 -7.12385C9.77483 -12.8545 13.9308 -17.2945 18.7562 -17.0425C23.5815 -16.7892 27.2508 -11.9385 26.9495 -6.20785C26.6495 -0.477184 22.4935 3.96282 17.6682 3.71082C12.8428 3.45748 9.17349 -1.39318 9.47483 -7.12385Z" fill="#F7DECE"/>
<path d="M17.8198 0.818455C14.9958 0.670455 14.1678 -0.0975442 14.0292 -0.252211C13.7812 -0.52821 13.8025 -0.953545 14.0785 -1.20288C14.3465 -1.44421 14.7545 -1.42954 15.0052 -1.17888C15.0558 -1.13754 15.7185 -0.640212 17.8892 -0.526879C20.1452 -0.408212 20.8225 -0.872211 20.8292 -0.876211C21.1052 -1.12421 21.5158 -1.09088 21.7652 -0.812212C22.0132 -0.536211 21.9772 -0.0988789 21.7012 0.149121C21.5478 0.289121 20.6425 0.966455 17.8198 0.818455ZM18.7918 -3.03488L17.2545 -3.11488C16.8305 -3.13754 16.5038 -3.50021 16.5265 -3.92421C16.5492 -4.34821 16.9118 -4.67488 17.3358 -4.65221L18.8732 -4.57221C19.2972 -4.54954 19.6238 -4.18687 19.6012 -3.76287C19.5785 -3.33888 19.2158 -3.01221 18.7918 -3.03488Z" fill="#A46161"/>
<path d="M32.0348 19.0642C32.7682 21.0682 30.5402 20.1642 28.7975 20.8162C27.6668 21.2388 25.7548 21.9308 25.4601 20.9962C24.8761 19.1508 23.8401 16.0455 23.4148 14.1855C23.4428 14.1748 23.5121 14.1468 23.5375 14.1348C23.4175 13.9562 23.3988 13.3988 23.3788 13.1708C23.1988 11.1615 24.5948 9.0975 24.5948 9.0975C24.5948 9.0975 27.3335 8.72683 28.0255 8.36816C28.3535 10.5082 28.6495 11.8895 28.6495 11.8895C28.6495 11.8895 31.1588 16.6708 32.0348 19.0642Z" fill="#838383"/>
<path d="M25.3584 6.04276L25.8998 7.69076C26.2424 8.7361 25.6691 9.8721 24.6238 10.2148L18.6158 12.1881C17.5704 12.5308 16.4344 11.9574 16.0918 10.9121L15.5504 9.2641C15.2078 8.21876 15.7811 7.08276 16.8264 6.7401L22.8344 4.76676C23.8798 4.42276 25.0158 4.99743 25.3584 6.04276Z" fill="#F0F0F0"/>
<path d="M13.7268 8.76298C14.0255 9.67098 11.1641 10.611 11.4628 11.519C11.7615 12.427 14.6215 11.4883 14.9201 12.3963C15.2188 13.3043 16.1721 12.991 16.1721 12.991L15.2775 10.267L14.3828 7.54297C14.3828 7.54164 13.4295 7.85497 13.7268 8.76298Z" fill="#6DCDF5"/>
<path d="M16.1361 7.36527L17.6881 12.0919C17.8027 12.4399 17.6107 12.8186 17.2627 12.9333L16.3494 13.2333C16.0014 13.3479 15.6227 13.1559 15.5081 12.8079L13.9561 8.08127C13.8414 7.73327 14.0334 7.3546 14.3814 7.23994L15.2947 6.93994C15.6427 6.8266 16.0214 7.01727 16.1361 7.36527Z" fill="#2196F3"/>
<path d="M23.3184 24.8598C24.7398 24.8692 26.9664 21.7798 24.7704 19.9892C22.5731 18.1985 18.7718 15.8572 16.8251 14.9145C14.3331 13.7092 9.67045 9.68917 8.74512 8.72384C7.81978 7.7585 5.61045 7.91984 4.44912 9.60784C3.62378 10.8078 2.52112 15.1985 4.44378 18.7332C6.69178 22.8638 10.5251 25.5092 15.6384 25.5092C16.9891 25.5092 18.4598 25.5985 19.2944 25.4105C20.1291 25.2225 21.6091 24.8492 23.3184 24.8598Z" fill="#FF8473"/>
<path d="M26.8478 15.6131C28.5584 15.4397 28.5878 13.0811 28.3504 11.6384C27.8971 8.88375 28.4198 6.46508 26.2624 5.47308C24.3744 4.60508 25.3384 7.33175 24.3104 9.47042C22.8344 12.5384 23.8358 13.9851 23.8358 13.9851C23.8358 13.9851 25.3504 15.7371 26.8478 15.6131Z" fill="#F7DECE"/>
<path d="M32.8349 21.1123C33.8322 23.9896 30.4536 25.895 28.2562 25.103C27.1162 24.6923 26.4429 23.051 25.6256 20.2256C24.5082 16.3696 23.8789 14.2456 23.8789 14.2456C23.8789 14.2456 25.0549 13.9456 26.4576 13.3323C27.8469 12.7243 28.5602 12.1123 28.5602 12.1123C28.5602 12.1123 32.0122 18.7363 32.8349 21.1123Z" fill="#C2C2C2"/>
<path d="M17.0439 25.8425H20.4639C23.2559 25.8425 26.1426 24.0052 26.2879 21.6345C26.4159 19.5598 24.0999 21.2625 21.7653 20.8372C19.6426 20.4492 17.8053 20.9358 17.8053 20.9358C17.8053 20.9358 17.9546 24.2732 17.0439 25.8425Z" fill="#F7DECE"/>
<path d="M2.68789 19.3011C3.55855 17.3318 7.26255 18.0238 10.4799 18.8158C13.3039 19.5104 16.2026 20.3997 18.3506 20.7797C18.3506 20.7797 18.7959 21.7864 18.5786 23.5878C18.4572 24.5904 17.9039 25.8077 17.9039 25.8077C17.9039 25.8077 13.5732 25.9291 10.6972 25.5477C6.37988 24.9771 1.11322 22.8651 2.68789 19.3011Z" fill="#C2C2C2"/>
</g>
</svg>
