<svg width="24" height="24" viewBox="0 0 24 24" fill="none" xmlns="http://www.w3.org/2000/svg">
<mask id="mask0_212_3860" style="mask-type:alpha" maskUnits="userSpaceOnUse" x="0" y="0" width="24" height="24">
<circle cx="12" cy="12" r="12" fill="#C4C4C4"/>
</mask>
<g mask="url(#mask0_212_3860)">
<circle cx="12" cy="12" r="12" fill="#FFBF41"/>
<path d="M31.6521 21.3001L30.6003 13.2101C30.8162 9.08151 27.6446 5.55929 23.516 5.3422L12.3018 4.75454C8.17319 4.53869 4.65097 7.7103 4.43388 11.8389L3.12256 19.2489L31.6521 21.3001Z" fill="#DADADA"/>
<path d="M18.6115 -16.8352C22.7039 -16.6206 29.4177 -14.2164 28.9523 -5.35031C28.487 3.51574 28.3809 5.56194 26.3347 5.45464C24.2872 5.34734 21.6671 3.15891 17.5747 2.9443C13.4835 2.7297 10.7062 4.63616 8.60135 4.52512C6.32183 4.40534 6.98435 -3.76699 7.12658 -6.49443C7.59197 -15.3605 14.5204 -17.0498 18.6115 -16.8352Z" fill="#927674"/>
<path d="M13.8403 5.00225C13.8403 6.4271 16.0575 6.90871 17.5896 6.90871C19.1205 6.90871 21.3264 6.4271 21.3264 5.00225V1.91797H13.8403V5.00225Z" fill="#F7DECE"/>
<path d="M13.8403 3.26952C14.8846 4.41489 16.1772 4.72432 17.5834 4.72432C18.9895 4.72432 20.2834 4.41489 21.3264 3.26952V0.357422H13.8403V3.26952Z" fill="#D79E7A"/>
<path d="M9.86742 -6.65084C10.1719 -12.4663 14.0834 -16.9879 18.6037 -16.7509C23.1228 -16.5138 26.5415 -11.6079 26.2371 -5.79244C25.9326 0.0217743 22.0348 4.26765 17.5157 4.03059C12.9941 3.79353 9.56299 -0.836633 9.86742 -6.65084Z" fill="#F7DECE"/>
<path d="M17.6169 2.1154C16.0161 2.0318 15.2201 1.19586 15.1353 1.10103C14.882 0.821553 14.9057 0.388607 15.1852 0.137824C15.4634 -0.111712 15.8889 -0.0917496 16.1421 0.181492C16.1758 0.21518 16.6674 0.700527 17.688 0.75293C18.7236 0.807827 19.2638 0.363654 19.2863 0.344939C19.572 0.104137 20 0.134081 20.2445 0.414809C20.4891 0.695536 20.4679 1.11725 20.1909 1.36679C20.0961 1.45163 19.2177 2.19899 17.6169 2.1154Z" fill="#A46161"/>
<path d="M30.9485 18.6749C31.6347 20.5502 29.5498 19.7043 27.9191 20.3144C26.861 20.7099 25.0719 21.3575 24.7961 20.4828C24.2496 18.756 23.2802 15.8502 22.8822 14.1097C22.9084 14.0997 22.9733 14.0735 22.997 14.0623C22.8847 13.8951 22.8672 13.3735 22.8485 13.1602C22.6801 11.2799 23.9864 9.3485 23.9864 9.3485C23.9864 9.3485 26.5491 9.00164 27.1967 8.66602C27.5036 10.6685 27.7806 11.9612 27.7806 11.9612C27.7806 11.9612 30.1287 16.4353 30.9485 18.6749Z" fill="#9B9B9B"/>
<path d="M24.4691 6.32451L24.9757 7.86664C25.2963 8.84483 24.7598 9.90786 23.7816 10.2285L18.1596 12.0751C17.1814 12.3957 16.1183 11.8592 15.7977 10.8811L15.2911 9.33891C14.9705 8.36073 15.507 7.2977 16.4852 6.97704L22.1072 5.13047C23.0854 4.80857 24.1484 5.34632 24.4691 6.32451Z" fill="#F0F0F0"/>
<path d="M13.5844 8.86918C13.8638 9.71885 11.1863 10.5985 11.4658 11.4481C11.7453 12.2978 14.4216 11.4194 14.701 12.2691C14.9805 13.1188 15.8726 12.8256 15.8726 12.8256L15.0354 10.2766L14.1982 7.72754C14.1982 7.7263 13.3061 8.0195 13.5844 8.86918Z" fill="#6DCDF5"/>
<path d="M15.8391 7.56241L17.2914 11.9855C17.3987 12.3111 17.2191 12.6654 16.8934 12.7727L16.0387 13.0535C15.7131 13.1608 15.3588 12.9811 15.2515 12.6555L13.7991 8.23242C13.6918 7.90677 13.8715 7.55243 14.1972 7.44513L15.0518 7.1644C15.3775 7.05834 15.7318 7.23676 15.8391 7.56241Z" fill="#2196F3"/>
<path d="M22.5604 23.9328C23.8905 23.9415 25.9741 21.0506 23.9192 19.375C21.863 17.6993 18.3058 15.5084 16.4842 14.6263C14.1523 13.4984 9.78913 9.73659 8.92324 8.83327C8.05734 7.92994 5.98993 8.08091 4.9032 9.66049C4.13088 10.7834 3.09904 14.892 4.8982 18.1996C7.0018 22.065 10.5889 24.5404 15.3738 24.5404C16.6377 24.5404 18.0139 24.624 18.7949 24.4481C19.576 24.2721 20.9609 23.9228 22.5604 23.9328Z" fill="#FF8473"/>
<path d="M25.863 15.2802C27.4637 15.118 27.4912 12.9108 27.2691 11.5608C26.8449 8.98313 27.334 6.71983 25.3152 5.79155C23.5485 4.97931 24.4506 7.53083 23.4886 9.53211C22.1074 12.403 23.0444 13.7568 23.0444 13.7568C23.0444 13.7568 24.4618 15.3962 25.863 15.2802Z" fill="#F7DECE"/>
<path d="M31.4652 20.4258C32.3984 23.1183 29.2368 24.9012 27.1806 24.1601C26.1138 23.7758 25.4838 22.2399 24.7189 19.5961C23.6734 15.9878 23.0845 14.0002 23.0845 14.0002C23.0845 14.0002 24.1849 13.7195 25.4975 13.1455C26.7976 12.5766 27.4651 12.0039 27.4651 12.0039C27.4651 12.0039 30.6953 18.2024 31.4652 20.4258Z" fill="#DADADA"/>
<path d="M16.689 24.8521H19.8893C22.5019 24.8521 25.2032 23.1328 25.3392 20.9144C25.4589 18.973 23.2917 20.5663 21.107 20.1683C19.1207 19.8052 17.4014 20.2606 17.4014 20.2606C17.4014 20.2606 17.5411 23.3836 16.689 24.8521Z" fill="#F7DECE"/>
<path d="M3.25502 18.7316C4.06976 16.8888 7.53583 17.5363 10.5465 18.2774C13.1891 18.9275 15.9016 19.7597 17.9116 20.1153C17.9116 20.1153 18.3283 21.0573 18.1249 22.7429C18.0114 23.6812 17.4936 24.8203 17.4936 24.8203C17.4936 24.8203 13.4411 24.9338 10.7499 24.577C6.70986 24.043 1.78151 22.0666 3.25502 18.7316Z" fill="#DADADA"/>
</g>
</svg>
