<svg width="24" height="24" viewBox="0 0 24 24" fill="none" xmlns="http://www.w3.org/2000/svg">
<mask id="mask0_212_3884" style="mask-type:alpha" maskUnits="userSpaceOnUse" x="0" y="0" width="24" height="24">
<circle cx="12" cy="12" r="12" fill="#C4C4C4"/>
</mask>
<g mask="url(#mask0_212_3884)">
<circle cx="12" cy="12" r="12" fill="#6DCDF5"/>
<path d="M16.7377 1.16113H12.1702C10.3274 1.16113 8.74463 2.74494 8.74463 4.58672V24.0004H19.6946V14.7956L20.1643 12.995V4.58672C20.1643 2.74391 18.5805 1.16113 16.7377 1.16113Z" fill="#FF8473"/>
<path d="M12.5 3.95801C9.94597 3.95801 7.875 6.02898 7.875 8.58301C7.875 11.137 9.94597 13.208 12.5 13.208V3.95801Z" fill="#FE6F5B"/>
<path d="M12.5001 4.98633C10.5134 4.98633 8.90283 6.59686 8.90283 8.58355C8.90283 10.5702 10.5134 12.1808 12.5001 12.1808V4.98633Z" fill="#FF8473"/>
<path d="M14.5557 4.98633C12.569 4.98633 10.9585 6.59686 10.9585 8.58355C10.9585 10.5702 12.569 12.1808 14.5557 12.1808V4.98633Z" fill="#FF8473"/>
<path d="M6.14211 23.9999H13.4948V9.35406C13.0292 9.27595 12.5534 9.22559 12.0652 9.22559C7.32713 9.22559 3.48633 13.0664 3.48633 17.8044C3.48633 20.2423 4.50794 22.4377 6.14211 23.9999Z" fill="#FE6F5B"/>
<path d="M13.3117 5.67562V10.2914C12.9047 10.2235 12.4905 10.1793 12.065 10.1793C7.85319 10.1793 4.43994 13.5926 4.43994 17.8044C4.43994 20.3595 5.70205 22.6165 7.63119 23.9999H18.6243V2.75879L13.3117 5.67562Z" fill="#FF8473"/>
<path d="M19.117 3.44434L24.1017 8.70039L19.6946 13.3367L19.6925 16.4673L15.6431 19.2156L12.9287 14.9616L18.7305 8.99022L16.7377 7.01381L19.117 3.44434Z" fill="#FE6F5B"/>
<path d="M19.1167 2.16016L24.7325 8.01232C24.7325 8.01232 26.6822 9.58277 24.7325 11.4379C23.5618 12.551 16.2266 17.4915 16.2266 17.4915L13.9429 15.2078L20.165 9.15418L16.7384 5.7286L19.1167 2.16016Z" fill="#FF8473"/>
<path d="M14.8959 15.2963C13.7407 14.7465 12.6451 14.8225 11.5854 15.4423C11.0787 15.7393 10.8722 16.2943 11.6481 16.4783C12.4272 16.6602 14.8959 15.2963 14.8959 15.2963Z" fill="#EEC2AD"/>
<path d="M16.4516 17.2673C16.5944 19.0813 14.1638 20.7761 12.3199 20.5552C11.0023 20.3969 9.85531 16.847 11.4186 16.3896C12.8122 15.9826 13.1976 14.7164 14.8513 15.1891C16.1648 15.5653 16.3992 16.5705 16.4516 17.2673Z" fill="#F7DECE"/>
<path d="M15.1983 17.9688L14.9804 17.5155C14.9804 17.5155 14.1879 18.6944 13.0862 19.1497C12.2506 19.4909 11.4677 19.4678 11.0987 19.4072C11.257 19.7083 11.3581 19.8483 11.4794 20.004C12.6275 20.0441 14.5292 19.4334 15.1983 17.9688ZM12.9197 17.9287C13.9372 17.2319 14.2342 16.5659 14.2342 16.5659L13.9022 16.1455C13.9022 16.1455 12.7564 17.9699 10.668 17.8764C10.6835 18.0061 10.6784 18.1815 10.7534 18.4426C11.034 18.4518 12.0933 18.494 12.9197 17.9287Z" fill="#E0AA94"/>
<path d="M15.5656 -0.873476C16.802 -2.34834 17.54 -4.23328 16.9059 -5.75645L15.8575 -8.2817C10.1904 -6.14803 7.85833 -9.07617 7.85833 -9.07617C7.85833 -9.07617 8.96833 -6.40601 6.58594 -5.04626L7.85319 -1.99581C8.88919 0.495523 10.3014 2.27975 12.7896 1.25711L12.8739 1.59216C13.0856 2.43186 12.9304 3.11122 14.1668 3.1585C15.0312 3.19139 16.1987 1.64766 15.987 0.807969L15.5656 -0.873476Z" fill="#F7DECE"/>
<path d="M9.1709 0.343706C9.42065 0.646901 9.69404 0.899734 9.98901 1.09707C11.0733 0.47115 11.1494 -0.478516 11.1494 -0.478516L9.22229 0.322123L9.1709 0.343706Z" fill="#A46161"/>
</g>
</svg>
